<svg width="200.00000000000003" height="200.00000000000003" xmlns="http://www.w3.org/2000/svg">
<style>
    #backCircle{
        animation-name: zoom;
        animation-duration: 2s;
        animation-iteration-count: infinite;
        transform-origin: center;
    }
    @keyframes zoom{
        0%{transform: scale(1);}
        100%{transform: scale(1.5);opacity: 0;}
    }
</style>
 <defs>
  <clipPath id="clip0">
   <path id="svg_1" clip-rule="evenodd" fill-rule="evenodd" d="m378,148l107,0l0,108l-107,0l0,-108z"/>
  </clipPath>
 </defs>
 <g>
  <title>background</title>
  <rect fill="none" id="canvas_background" height="402" width="582" y="-1" x="-1"/>
 </g>
 <g>
  <title>Layer 1</title>
  <path fill-rule="evenodd" fill="#FBE49B" stroke-miterlimit="8" stroke-width="6" stroke="#FBE49B" d="m50,100c0,-27.614 22.386,-50 50,-50c27.614,0 50,22.386 50,50c0,27.614 -22.386,50 -50,50c-27.614,0 -50,-22.386 -50,-50z" id="backCircle"/>
  <path fill-rule="evenodd" fill="#F7CC3A" stroke-miterlimit="8" stroke-width="6" stroke="#FBE49B" d="m50.000001,100c0,-27.614 22.386,-50 50,-50c27.614,0 50,22.386 50,50c0,27.614 -22.386,50 -50,50c-27.614,0 -50,-22.386 -50,-50z" id="frontCiircle"/>
  <path fill-rule="evenodd" fill="#FFFFFF" d="m114.407,65.999962l0,1.318l-28.814,0l0,-1.318l28.814,0zm0,2.636l0,2.636l-28.814,0l0,-2.636l28.814,0zm0,3.954l0,32.838l6.593,0c-7,9.524 -15.302,28.529 -21,28.572c-5.698,0.043 -14,-19.048 -21,-28.572l6.593,0l0,-32.838l28.814,0z" id="Arrow"/>
 </g>
</svg>