<svg width="1208" height="1207" xmlns="http://www.w3.org/2000/svg" xmlns:xlink="http://www.w3.org/1999/xlink" overflow="hidden"><defs><clipPath id="clip0"><path d="M32 51 1240 51 1240 1258 32 1258Z" fill-rule="evenodd" clip-rule="evenodd"/></clipPath></defs><g clip-path="url(#clip0)" transform="translate(-32 -51)"><path d="M634.164 380.821C473.072 380.821 342.481 511.52 342.481 672.745 342.481 833.971 473.072 964.67 634.164 964.67 795.256 964.67 925.847 833.971 925.847 672.745 925.847 511.52 795.256 380.821 634.164 380.821ZM636 51C969.028 51 1239 321.196 1239 654.5 1239 987.804 969.028 1258 636 1258 302.972 1258 33 987.804 33 654.5 33 321.196 302.972 51 636 51Z" fill="#DEEBF7" fill-rule="evenodd"/><path d="M628.302 503.053C523.178 503.053 437.958 588.273 437.958 693.397 437.958 798.521 523.178 883.74 628.302 883.74 733.426 883.74 818.645 798.521 818.645 693.397 818.645 588.273 733.426 503.053 628.302 503.053ZM629.5 288C846.824 288 1023 464.176 1023 681.5 1023 898.824 846.824 1075 629.5 1075 412.176 1075 236 898.824 236 681.5 236 464.176 412.176 288 629.5 288Z" fill="#BDD7EE" fill-rule="evenodd"/><path d="M1037.75 386.434 1048.49 401.763C1058.45 415.984 1054.99 435.585 1040.77 445.543L940.251 515.926 893.457 449.097 993.975 378.714C1008.2 368.756 1027.8 372.213 1037.75 386.434Z" fill="#BDD7EE" fill-rule="evenodd"/><path d="M1080.95 595.329 1095.27 676.531 951.706 701.844 937.388 620.643Z" fill="#BDD7EE" fill-rule="evenodd"/><path d="M1090.62 603.872 1101.43 665.195 957.871 690.509 947.058 629.185Z" fill="#BDD7EE" fill-rule="evenodd"/><path d="M624.954 129 644.5 129 679 163.5 679 313 610 313 610 143.954C610 135.695 616.695 129 624.954 129Z" fill="#BDD7EE" fill-rule="evenodd"/><path d="M813.053 200.654 878.58 227.129C887.627 230.784 891.998 241.082 888.343 250.13L837.218 376.667 738.927 336.955 790.052 210.417C793.707 201.37 804.005 196.998 813.053 200.654Z" fill="#BDD7EE" fill-rule="evenodd"/><path d="M845.029 185.199 862.38 192.21C878.477 198.713 886.253 217.034 879.75 233.131L833.782 346.905 758.14 316.344 804.108 202.569C810.611 186.473 828.932 178.696 845.029 185.199Z" fill="#BDD7EE" fill-rule="evenodd"/><path d="M340.977 276.472 412.384 235.245 485.273 361.492 413.865 402.719Z" fill="#BDD7EE" fill-rule="evenodd"/><path d="M345.697 264.463 399.624 233.328 472.513 359.575 418.585 390.71Z" fill="#BDD7EE" fill-rule="evenodd"/><path d="M135.028 483.567 166.621 425.049 215.587 410.418 346.142 480.901 287.63 589.282 143.34 511.383C133.364 505.997 129.642 493.543 135.028 483.567Z" fill="#BDD7EE" fill-rule="evenodd"/><path d="M211.756 937.502 201.023 922.173C191.065 907.951 194.521 888.351 208.742 878.393L309.26 808.009 356.054 874.838 255.536 945.221C241.315 955.179 221.714 951.723 211.756 937.502Z" fill="#BDD7EE" fill-rule="evenodd"/><path d="M168.561 728.606 154.243 647.405 297.805 622.091 312.123 703.293Z" fill="#BDD7EE" fill-rule="evenodd"/><path d="M158.89 720.064 148.077 658.74 291.639 633.426 302.453 694.75Z" fill="#BDD7EE" fill-rule="evenodd"/><path d="M624.263 1195 605 1195 571 1161 571 1011 639 1011 639 1180.26C639 1188.4 632.402 1195 624.263 1195Z" fill="#BDD7EE" fill-rule="evenodd"/><path d="M436.458 1123.28 370.931 1096.81C361.884 1093.15 357.512 1082.85 361.168 1073.81L412.292 947.268 510.584 986.981 459.459 1113.52C455.804 1122.57 445.506 1126.94 436.458 1123.28Z" fill="#BDD7EE" fill-rule="evenodd"/><path d="M404.482 1138.74 387.131 1131.73C371.034 1125.22 363.257 1106.9 369.761 1090.8L415.728 977.031 491.371 1007.59 445.403 1121.37C438.899 1137.46 420.578 1145.24 404.482 1138.74Z" fill="#BDD7EE" fill-rule="evenodd"/><path d="M908.534 1047.46 837.126 1088.69 764.238 962.444 835.645 921.217Z" fill="#BDD7EE" fill-rule="evenodd"/><path d="M903.814 1059.47 849.887 1090.61 776.998 964.361 830.925 933.226Z" fill="#BDD7EE" fill-rule="evenodd"/><path d="M1114.48 840.369 1082.89 898.887 1033.92 913.518 903.368 843.034 961.881 734.654 1106.17 812.553C1116.15 817.939 1119.87 830.392 1114.48 840.369Z" fill="#BDD7EE" fill-rule="evenodd"/><path d="M612.96 508.407C521.728 508.407 447.77 582.474 447.77 673.84 447.77 765.205 521.728 839.272 612.96 839.272 704.192 839.272 778.15 765.205 778.15 673.84 778.15 582.474 704.192 508.407 612.96 508.407ZM614 321.5C802.605 321.5 955.5 474.619 955.5 663.5 955.5 852.381 802.605 1005.5 614 1005.5 425.395 1005.5 272.5 852.381 272.5 663.5 272.5 474.619 425.395 321.5 614 321.5Z" stroke="#9DC3E6" stroke-miterlimit="8" fill="#9DC3E6" fill-rule="evenodd"/><path d="M909.214 303.78 947.293 339.29 771.825 527.457 733.745 491.947Z" stroke="#9DC3E6" stroke-width="1.33333" stroke-miterlimit="8" fill="#9DC3E6" fill-rule="evenodd"/><path d="M925.696 299.968 949.946 322.582 774.478 510.749 750.227 488.135Z" stroke="#9DC3E6" stroke-width="1.33333" stroke-miterlimit="8" fill="#9DC3E6" fill-rule="evenodd"/><path d="M945.206 303.794 873.242 380.967" stroke="#9DC3E6" stroke-miterlimit="8" fill="#9DC3E6" fill-rule="evenodd"/><path d="M663.81 192.475 725.843 197.902 707.899 403.003 645.866 397.576Z" stroke="#9DC3E6" stroke-width="1.33333" stroke-miterlimit="8" fill="#9DC3E6" fill-rule="evenodd"/><path d="M698.983 184.587 720.443 186.464 702.498 391.565 681.039 389.688Z" stroke="#9DC3E6" stroke-width="1.33333" stroke-miterlimit="8" fill="#9DC3E6" fill-rule="evenodd"/><path d="M672.385 182.259 693.845 184.137 675.901 389.238 654.441 387.36Z" stroke="#9DC3E6" stroke-width="1.33333" stroke-miterlimit="8" fill="#9DC3E6" fill-rule="evenodd"/><path d="M683.912 174.084 674.715 279.203" stroke="#9DC3E6" stroke-miterlimit="8" fill="#9DC3E6" fill-rule="evenodd"/><path d="M710.51 176.411 701.313 281.53" stroke="#9DC3E6" stroke-miterlimit="8" fill="#9DC3E6" fill-rule="evenodd"/><path d="M535.447 206.283 571.137 201.9 579.797 272.426 544.106 276.808Z" stroke="#9DC3E6" stroke-width="1.33333" stroke-miterlimit="8" fill="#9DC3E6" fill-rule="evenodd"/><path d="M547.666 198.132 557.551 196.918 581.68 215.77 600.956 372.762 600.956 372.762 548.09 379.253 548.09 379.253 528.814 222.262Z" stroke="#9DC3E6" stroke-width="1.33333" stroke-miterlimit="8" fill="#9DC3E6" fill-rule="evenodd"/><path d="M551.189 185.969 564.049 290.703" stroke="#9DC3E6" stroke-miterlimit="8" fill="#9DC3E6" fill-rule="evenodd"/><path d="M247.514 452.565 292.421 383.413 414.68 462.809 369.772 531.961Z" stroke="#9DC3E6" stroke-width="1.33333" stroke-miterlimit="8" fill="#9DC3E6" fill-rule="evenodd"/><path d="M246.267 439.722 280.182 387.498 402.441 466.894 368.526 519.118Z" stroke="#9DC3E6" stroke-width="1.33333" stroke-miterlimit="8" fill="#9DC3E6" fill-rule="evenodd"/><path d="M976.606 483.348 1007.42 541.299 910.742 592.704 879.929 534.753Z" stroke="#9DC3E6" stroke-width="1.33333" stroke-miterlimit="8" fill="#9DC3E6" fill-rule="evenodd"/><path d="M997.338 475.744 1025.64 528.969 928.961 580.373 900.661 527.148Z" stroke="#9DC3E6" stroke-width="1.33333" stroke-miterlimit="8" fill="#9DC3E6" fill-rule="evenodd"/><text fill="#FFFFFF" font-family="Calibri,Calibri_MSFontService,sans-serif" font-weight="400" font-size="24" transform="matrix(0.469472 0.882948 -0.882948 0.469472 954.797 529)">;</text><path d="M1005.89 475.327 1030.8 522.181 934.125 573.585 909.212 526.731Z" stroke="#9DC3E6" stroke-width="1.33333" stroke-miterlimit="8" fill="#9DC3E6" fill-rule="evenodd"/><path d="M375.759 396.763 451.311 347.699 504.603 429.762 429.052 478.826Z" stroke="#9DC3E6" stroke-width="1.33333" stroke-miterlimit="8" fill="#9DC3E6" fill-rule="evenodd"/><path d="M342.866 1019.46 304.786 983.953 480.255 795.785 518.334 831.295Z" stroke="#9DC3E6" stroke-width="1.33333" stroke-miterlimit="8" fill="#9DC3E6" fill-rule="evenodd"/><path d="M326.384 1023.27 302.133 1000.66 477.602 812.493 501.852 835.107Z" stroke="#9DC3E6" stroke-width="1.33333" stroke-miterlimit="8" fill="#9DC3E6" fill-rule="evenodd"/><path d="M306.873 1019.45 378.837 942.275" stroke="#9DC3E6" stroke-miterlimit="8" fill="#9DC3E6" fill-rule="evenodd"/><path d="M588.269 1130.77 526.236 1125.34 544.18 920.239 606.213 925.667Z" stroke="#9DC3E6" stroke-width="1.33333" stroke-miterlimit="8" fill="#9DC3E6" fill-rule="evenodd"/><path d="M553.096 1138.66 531.637 1136.78 549.581 931.677 571.04 933.555Z" stroke="#9DC3E6" stroke-width="1.33333" stroke-miterlimit="8" fill="#9DC3E6" fill-rule="evenodd"/><path d="M579.694 1140.98 558.234 1139.11 576.178 934.004 597.638 935.882Z" stroke="#9DC3E6" stroke-width="1.33333" stroke-miterlimit="8" fill="#9DC3E6" fill-rule="evenodd"/><path d="M568.167 1149.16 577.364 1044.04" stroke="#9DC3E6" stroke-miterlimit="8" fill="#9DC3E6" fill-rule="evenodd"/><path d="M541.569 1146.83 550.766 1041.71" stroke="#9DC3E6" stroke-miterlimit="8" fill="#9DC3E6" fill-rule="evenodd"/><path d="M716.633 1116.96 680.942 1121.34 672.283 1050.82 707.973 1046.43Z" stroke="#9DC3E6" stroke-width="1.33333" stroke-miterlimit="8" fill="#9DC3E6" fill-rule="evenodd"/><path d="M704.413 1125.11 694.528 1126.32 670.399 1107.47 651.123 950.481 651.123 950.481 703.989 943.989 703.989 943.989 723.265 1100.98Z" stroke="#9DC3E6" stroke-width="1.33333" stroke-miterlimit="8" fill="#9DC3E6" fill-rule="evenodd"/><path d="M700.89 1137.27 688.03 1032.54" stroke="#9DC3E6" stroke-miterlimit="8" fill="#9DC3E6" fill-rule="evenodd"/><path d="M1004.57 870.677 959.658 939.829 837.399 860.433 882.307 791.281Z" stroke="#9DC3E6" stroke-width="1.33333" stroke-miterlimit="8" fill="#9DC3E6" fill-rule="evenodd"/><path d="M1005.81 883.52 971.897 935.744 849.639 856.348 883.553 804.124Z" stroke="#9DC3E6" stroke-width="1.33333" stroke-miterlimit="8" fill="#9DC3E6" fill-rule="evenodd"/><path d="M275.473 839.894 244.66 781.943 341.337 730.539 372.15 788.49Z" stroke="#9DC3E6" stroke-width="1.33333" stroke-miterlimit="8" fill="#9DC3E6" fill-rule="evenodd"/><path d="M254.741 847.498 226.441 794.273 323.118 742.869 351.418 796.094Z" stroke="#9DC3E6" stroke-width="1.33333" stroke-miterlimit="8" fill="#9DC3E6" fill-rule="evenodd"/><text fill="#FFFFFF" font-family="Calibri,Calibri_MSFontService,sans-serif" font-weight="400" font-size="24" transform="matrix(-0.469472 -0.882948 0.882948 -0.469472 297.282 795)">;</text><path d="M246.19 847.915 221.277 801.061 317.954 749.657 342.867 796.511Z" stroke="#9DC3E6" stroke-width="1.33333" stroke-miterlimit="8" fill="#9DC3E6" fill-rule="evenodd"/><path d="M876.32 926.479 800.768 975.543 747.476 893.48 823.027 844.416Z" stroke="#9DC3E6" stroke-width="1.33333" stroke-miterlimit="8" fill="#9DC3E6" fill-rule="evenodd"/><path d="M630.62 529.442C553.413 529.442 490.825 592.031 490.825 669.237 490.825 746.444 553.413 809.032 630.62 809.032 707.827 809.032 770.415 746.444 770.415 669.237 770.415 592.031 707.827 529.442 630.62 529.442ZM631.5 371.5C791.11 371.5 920.5 500.89 920.5 660.5 920.5 820.11 791.11 949.5 631.5 949.5 471.89 949.5 342.5 820.11 342.5 660.5 342.5 500.89 471.89 371.5 631.5 371.5Z" stroke="#81B2DF" stroke-miterlimit="8" fill="#81B2DF" fill-rule="evenodd"/><path d="M668.036 336.365 758.83 352.374 737.333 474.285 646.54 458.275Z" stroke="#81B2DF" stroke-width="1.33333" stroke-miterlimit="8" fill="#81B2DF" fill-rule="evenodd"/><path d="M517.306 373.552 608.813 362.316 623.9 485.185 532.393 496.42Z" stroke="#81B2DF" stroke-width="1.33333" stroke-miterlimit="8" fill="#81B2DF" fill-rule="evenodd"/><rect x="585.5" y="320.5" width="92" height="124" stroke="#81B2DF" stroke-miterlimit="8" fill="#81B2DF"/><rect x="317.5" y="599.5" width="124" height="93" stroke="#81B2DF" stroke-miterlimit="8" fill="#81B2DF"/><path d="M612.705 300.621 737.333 309.336 728.698 432.826 604.07 424.111Z" stroke="#81B2DF" stroke-width="1.33333" stroke-miterlimit="8" fill="#81B2DF" fill-rule="evenodd"/><path d="M618.827 297.736 733.521 305.756 724.886 429.246 610.192 421.226Z" stroke="#81B2DF" stroke-width="1.33333" stroke-miterlimit="8" fill="#81B2DF" fill-rule="evenodd"/><path d="M618.331 328.046C620.396 298.507 646.016 276.236 675.555 278.302 705.093 280.367 727.364 305.987 725.298 335.525 723.233 365.064 697.613 387.335 668.075 385.269 638.536 383.204 616.265 357.584 618.331 328.046Z" stroke="#81B2DF" stroke-width="1.33333" stroke-miterlimit="8" fill="#81B2DF" fill-rule="evenodd"/><path d="M446.894 329.614 527.504 306.499 529.613 313.854 449.003 336.969Z" stroke="#81B2DF" stroke-width="1.33333" stroke-miterlimit="8" fill="#81B2DF" fill-rule="evenodd"/><path d="M452.736 347.862 533.347 324.747 552.932 393.05 472.322 416.165Z" stroke="#81B2DF" stroke-width="1.33333" stroke-miterlimit="8" fill="#81B2DF" fill-rule="evenodd"/><path d="M450.389 321.4 520.188 301.386 539.773 369.689 469.975 389.703Z" stroke="#81B2DF" stroke-width="1.33333" stroke-miterlimit="8" fill="#81B2DF" fill-rule="evenodd"/><path d="M364.345 424.536 401.253 387.627 461.7 448.074 424.792 484.983Z" stroke="#81B2DF" stroke-width="1.33333" stroke-miterlimit="8" fill="#81B2DF" fill-rule="evenodd"/><path d="M353.966 410.762 387.864 376.863 448.311 437.311 414.413 471.209Z" stroke="#81B2DF" stroke-width="1.33333" stroke-miterlimit="8" fill="#81B2DF" fill-rule="evenodd"/><text fill="#FFFFFF" font-family="Calibri,Calibri_MSFontService,sans-serif" font-weight="400" font-size="24" transform="matrix(0.707107 -0.707107 0.707107 0.707107 404.158 432)">;</text><path d="M351.74 404.435 381.581 374.594 442.028 435.042 412.187 464.882Z" stroke="#81B2DF" stroke-width="1.33333" stroke-miterlimit="8" fill="#81B2DF" fill-rule="evenodd"/><path d="M393.227 420.588 473.069 374.491 534.965 481.697 455.122 527.795Z" stroke="#81B2DF" stroke-width="1.33333" stroke-miterlimit="8" fill="#81B2DF" fill-rule="evenodd"/><path d="M368.907 508.011 425.668 435.361 523.216 511.574 466.456 584.224Z" stroke="#81B2DF" stroke-width="1.33333" stroke-miterlimit="8" fill="#81B2DF" fill-rule="evenodd"/><path d="M314.459 529.032 344.839 476.412 353.913 481.65 323.532 534.271Z" stroke="#81B2DF" stroke-width="1.33333" stroke-miterlimit="8" fill="#81B2DF" fill-rule="evenodd"/><path d="M337.381 541.776 367.761 489.155 452.016 537.8 421.635 590.42Z" stroke="#81B2DF" stroke-width="1.33333" stroke-miterlimit="8" fill="#81B2DF" fill-rule="evenodd"/><path d="M308.277 520.758 334.583 475.195 418.837 523.84 392.532 569.402Z" stroke="#81B2DF" stroke-width="1.33333" stroke-miterlimit="8" fill="#81B2DF" fill-rule="evenodd"/><path d="M233.702 597.233 235.091 539.953C279.506 555.456 323.92 570.959 368.334 586.463L350.749 637.536 233.702 597.233Z" stroke="#81B2DF" stroke-width="1.33333" stroke-miterlimit="8" fill="#81B2DF" fill-rule="evenodd"/><rect x="247.5" y="639.5" width="85" height="54" stroke="#81B2DF" stroke-miterlimit="8" fill="#81B2DF"/><rect x="229.5" y="641.5" width="86" height="49" stroke="#81B2DF" stroke-miterlimit="8" fill="#81B2DF"/><text fill="#FFFFFF" font-family="Calibri,Calibri_MSFontService,sans-serif" font-weight="400" font-size="24" transform="matrix(-1.83697e-16 -1 1 -1.83697e-16 279.801 669)">;</text><rect x="223.5" y="644.5" width="86" height="43" stroke="#81B2DF" stroke-miterlimit="8" fill="#81B2DF"/><path d="M854.777 501.28 820.533 461.887 885.049 405.804 919.293 445.197Z" stroke="#81B2DF" stroke-width="1.33333" stroke-miterlimit="8" fill="#81B2DF" fill-rule="evenodd"/><path d="M840.313 510.673 808.861 474.492 873.378 418.409 904.829 454.589Z" stroke="#81B2DF" stroke-width="1.33333" stroke-miterlimit="8" fill="#81B2DF" fill-rule="evenodd"/><text fill="#FFFFFF" font-family="Calibri,Calibri_MSFontService,sans-serif" font-weight="400" font-size="24" transform="matrix(-0.656059 -0.75471 0.75471 -0.656059 864.766 462)">;</text><path d="M833.846 512.452 806.16 480.602 870.676 424.519 898.363 456.369Z" stroke="#81B2DF" stroke-width="1.33333" stroke-miterlimit="8" fill="#81B2DF" fill-rule="evenodd"/><path d="M806.692 499.576 766.707 466.025 821.656 400.539 861.64 434.09Z" stroke="#81B2DF" stroke-width="1.33333" stroke-miterlimit="8" fill="#81B2DF" fill-rule="evenodd"/><path d="M793.875 511.115 757.151 480.301 812.1 414.815 848.824 445.63Z" stroke="#81B2DF" stroke-width="1.33333" stroke-miterlimit="8" fill="#81B2DF" fill-rule="evenodd"/><text fill="#FFFFFF" font-family="Calibri,Calibri_MSFontService,sans-serif" font-weight="400" font-size="24" transform="matrix(-0.766044 -0.642788 0.642788 -0.766044 810.423 459)">;</text><path d="M787.766 513.884 755.438 486.758 810.387 421.272 842.715 448.399Z" stroke="#81B2DF" stroke-width="1.33333" stroke-miterlimit="8" fill="#81B2DF" fill-rule="evenodd"/><rect x="0" y="0" width="52.1962" height="85.4852" stroke="#81B2DF" stroke-width="1.33333" stroke-miterlimit="8" fill="#81B2DF" transform="matrix(-0.920505 -0.390731 -0.390731 0.920505 837.212 361.987)"/><rect x="0" y="0" width="47.9393" height="85.4852" stroke="#81B2DF" stroke-width="1.33333" stroke-miterlimit="8" fill="#81B2DF" transform="matrix(-0.920505 -0.390731 -0.390731 0.920505 841.676 345.328)"/><text fill="#FFFFFF" font-family="Calibri,Calibri_MSFontService,sans-serif" font-weight="400" font-size="24" transform="matrix(0.920505 0.390731 -0.390731 0.920505 796.876 381)">;</text><rect x="0" y="0" width="42.2012" height="85.4852" stroke="#81B2DF" stroke-width="1.33333" stroke-miterlimit="8" fill="#81B2DF" transform="matrix(-0.920505 -0.390731 -0.390731 0.920505 841.369 338.628)"/><path d="M864.912 566.177 836.484 522.401 908.178 475.843 936.606 519.618Z" stroke="#81B2DF" stroke-width="1.33333" stroke-miterlimit="8" fill="#81B2DF" fill-rule="evenodd"/><path d="M849.281 573.465 823.171 533.26 894.865 486.701 920.975 526.906Z" stroke="#81B2DF" stroke-width="1.33333" stroke-miterlimit="8" fill="#81B2DF" fill-rule="evenodd"/><text fill="#FFFFFF" font-family="Calibri,Calibri_MSFontService,sans-serif" font-weight="400" font-size="24" transform="matrix(-0.544639 -0.838671 0.838671 -0.544639 880.261 529)">;</text><path d="M842.63 574.327 819.646 538.934 891.339 492.375 914.324 527.768Z" stroke="#81B2DF" stroke-width="1.33333" stroke-miterlimit="8" fill="#81B2DF" fill-rule="evenodd"/><path d="M866.231 452.188 907.459 523.596 852.829 555.136 811.601 483.729Z" stroke="#81B2DF" stroke-width="1.33333" stroke-miterlimit="8" fill="#81B2DF" fill-rule="evenodd"/><path d="M874.291 459.189 905.426 513.116 850.796 544.657 819.661 490.729Z" stroke="#81B2DF" stroke-width="1.33333" stroke-miterlimit="8" fill="#81B2DF" fill-rule="evenodd"/><path d="M965.394 548.487 986.734 628.132 888.867 654.355 867.526 574.71Z" stroke="#81B2DF" stroke-width="1.33333" stroke-miterlimit="8" fill="#81B2DF" fill-rule="evenodd"/><path d="M973.403 556.789 989.52 616.937 891.653 643.16 875.536 583.012Z" stroke="#81B2DF" stroke-width="1.33333" stroke-miterlimit="8" fill="#81B2DF" fill-rule="evenodd"/><path d="M983.886 673.333 979.337 725.331 894.177 717.88 898.726 665.882Z" stroke="#81B2DF" stroke-width="1.33333" stroke-miterlimit="8" fill="#81B2DF" fill-rule="evenodd"/><path d="M1000.69 677.213 996.512 724.97 911.353 717.519 915.531 669.762Z" stroke="#81B2DF" stroke-width="1.33333" stroke-miterlimit="8" fill="#81B2DF" fill-rule="evenodd"/><text fill="#FFFFFF" font-family="Calibri,Calibri_MSFontService,sans-serif" font-weight="400" font-size="24" transform="matrix(-0.0871557 0.996195 -0.996195 -0.0871557 948.741 693)">;</text><path d="M1006.46 680.628 1002.78 722.669 917.625 715.219 921.303 673.178Z" stroke="#81B2DF" stroke-width="1.33333" stroke-miterlimit="8" fill="#81B2DF" fill-rule="evenodd"/><rect x="840.5" y="605.5" width="124" height="92" stroke="#81B2DF" stroke-miterlimit="8" fill="#81B2DF"/><path d="M583.357 985.692 492.563 969.682 514.06 847.772 604.853 863.781Z" stroke="#81B2DF" stroke-width="1.33333" stroke-miterlimit="8" fill="#81B2DF" fill-rule="evenodd"/><path d="M734.087 948.504 642.58 959.74 627.493 836.872 719 825.636Z" stroke="#81B2DF" stroke-width="1.33333" stroke-miterlimit="8" fill="#81B2DF" fill-rule="evenodd"/><rect x="574.5" y="879.5" width="92" height="123" stroke="#81B2DF" stroke-miterlimit="8" fill="#81B2DF"/><rect x="810.5" y="631.5" width="124" height="92" stroke="#81B2DF" stroke-miterlimit="8" fill="#81B2DF"/><path d="M638.688 1021.43 514.06 1012.72 522.695 889.23 647.323 897.945Z" stroke="#81B2DF" stroke-width="1.33333" stroke-miterlimit="8" fill="#81B2DF" fill-rule="evenodd"/><path d="M632.566 1024.32 517.872 1016.3 526.507 892.81 641.201 900.83Z" stroke="#81B2DF" stroke-width="1.33333" stroke-miterlimit="8" fill="#81B2DF" fill-rule="evenodd"/><path d="M633.062 994.011C630.997 1023.55 605.377 1045.82 575.838 1043.75 546.3 1041.69 524.029 1016.07 526.094 986.531 528.16 956.993 553.78 934.721 583.318 936.787 612.857 938.852 635.128 964.472 633.062 994.011Z" stroke="#81B2DF" stroke-width="1.33333" stroke-miterlimit="8" fill="#81B2DF" fill-rule="evenodd"/><path d="M804.499 992.443 723.889 1015.56 721.78 1008.2 802.39 985.087Z" stroke="#81B2DF" stroke-width="1.33333" stroke-miterlimit="8" fill="#81B2DF" fill-rule="evenodd"/><path d="M798.656 974.194 718.046 997.309 698.461 929.006 779.071 905.892Z" stroke="#81B2DF" stroke-width="1.33333" stroke-miterlimit="8" fill="#81B2DF" fill-rule="evenodd"/><path d="M801.004 1000.66 731.205 1020.67 711.62 952.368 781.418 932.353Z" stroke="#81B2DF" stroke-width="1.33333" stroke-miterlimit="8" fill="#81B2DF" fill-rule="evenodd"/><path d="M887.048 897.521 850.14 934.429 789.693 873.982 826.601 837.074Z" stroke="#81B2DF" stroke-width="1.33333" stroke-miterlimit="8" fill="#81B2DF" fill-rule="evenodd"/><path d="M897.427 911.295 863.529 945.193 803.082 884.746 836.98 850.847Z" stroke="#81B2DF" stroke-width="1.33333" stroke-miterlimit="8" fill="#81B2DF" fill-rule="evenodd"/><text fill="#FFFFFF" font-family="Calibri,Calibri_MSFontService,sans-serif" font-weight="400" font-size="24" transform="matrix(-0.707107 0.707107 -0.707107 -0.707107 847.235 890)">;</text><path d="M899.653 917.621 869.812 947.462 809.365 887.015 839.206 857.174Z" stroke="#81B2DF" stroke-width="1.33333" stroke-miterlimit="8" fill="#81B2DF" fill-rule="evenodd"/><path d="M858.166 901.468 778.324 947.565 716.428 840.359 796.271 794.262Z" stroke="#81B2DF" stroke-width="1.33333" stroke-miterlimit="8" fill="#81B2DF" fill-rule="evenodd"/><path d="M882.486 814.046 825.725 886.696 728.177 810.482 784.937 737.832Z" stroke="#81B2DF" stroke-width="1.33333" stroke-miterlimit="8" fill="#81B2DF" fill-rule="evenodd"/><path d="M936.934 793.024 906.554 845.645 897.48 840.406 927.861 787.786Z" stroke="#81B2DF" stroke-width="1.33333" stroke-miterlimit="8" fill="#81B2DF" fill-rule="evenodd"/><path d="M914.012 780.28 883.631 832.901 799.377 784.256 829.757 731.636Z" stroke="#81B2DF" stroke-width="1.33333" stroke-miterlimit="8" fill="#81B2DF" fill-rule="evenodd"/><path d="M943.116 801.298 916.81 846.861 832.556 798.217 858.861 752.654Z" stroke="#81B2DF" stroke-width="1.33333" stroke-miterlimit="8" fill="#81B2DF" fill-rule="evenodd"/><path d="M1017.69 724.823 1016.3 782.103C971.887 766.6 927.473 751.097 883.058 735.594L900.644 684.521 1017.69 724.823Z" stroke="#81B2DF" stroke-width="1.33333" stroke-miterlimit="8" fill="#81B2DF" fill-rule="evenodd"/><rect x="919.5" y="629.5" width="86" height="54" stroke="#81B2DF" stroke-miterlimit="8" fill="#81B2DF"/><rect x="936.5" y="632.5" width="86" height="49" stroke="#81B2DF" stroke-miterlimit="8" fill="#81B2DF"/><text fill="#FFFFFF" font-family="Calibri,Calibri_MSFontService,sans-serif" font-weight="400" font-size="24" transform="matrix(6.12323e-17 1 -1 6.12323e-17 971.592 653)">;</text><rect x="942.5" y="635.5" width="86" height="43" stroke="#81B2DF" stroke-miterlimit="8" fill="#81B2DF"/><path d="M396.616 820.776 430.86 860.169 366.343 916.253 332.1 876.86Z" stroke="#81B2DF" stroke-width="1.33333" stroke-miterlimit="8" fill="#81B2DF" fill-rule="evenodd"/><path d="M411.081 811.384 442.532 847.564 378.015 903.647 346.564 867.467Z" stroke="#81B2DF" stroke-width="1.33333" stroke-miterlimit="8" fill="#81B2DF" fill-rule="evenodd"/><text fill="#FFFFFF" font-family="Calibri,Calibri_MSFontService,sans-serif" font-weight="400" font-size="24" transform="matrix(0.656059 0.75471 -0.75471 0.656059 386.627 860)">;</text><path d="M417.547 809.604 445.233 841.454 380.717 897.537 353.03 865.688Z" stroke="#81B2DF" stroke-width="1.33333" stroke-miterlimit="8" fill="#81B2DF" fill-rule="evenodd"/><path d="M444.701 822.481 484.686 856.032 429.737 921.517 389.752 887.966Z" stroke="#81B2DF" stroke-width="1.33333" stroke-miterlimit="8" fill="#81B2DF" fill-rule="evenodd"/><path d="M457.518 810.941 494.242 841.756 439.293 907.241 402.569 876.426Z" stroke="#81B2DF" stroke-width="1.33333" stroke-miterlimit="8" fill="#81B2DF" fill-rule="evenodd"/><text fill="#FFFFFF" font-family="Calibri,Calibri_MSFontService,sans-serif" font-weight="400" font-size="24" transform="matrix(0.766044 0.642788 -0.642788 0.766044 440.969 863)">;</text><path d="M463.627 808.172 495.955 835.298 441.006 900.784 408.678 873.657Z" stroke="#81B2DF" stroke-width="1.33333" stroke-miterlimit="8" fill="#81B2DF" fill-rule="evenodd"/><rect x="0" y="0" width="52.1962" height="85.4852" stroke="#81B2DF" stroke-width="1.33333" stroke-miterlimit="8" fill="#81B2DF" transform="matrix(0.920505 0.390731 0.390731 -0.920505 414.181 960.07)"/><rect x="0" y="0" width="47.9393" height="85.4852" stroke="#81B2DF" stroke-width="1.33333" stroke-miterlimit="8" fill="#81B2DF" transform="matrix(0.920505 0.390731 0.390731 -0.920505 409.717 976.729)"/><text fill="#FFFFFF" font-family="Calibri,Calibri_MSFontService,sans-serif" font-weight="400" font-size="24" transform="matrix(-0.920505 -0.390731 0.390731 -0.920505 454.517 941)">;</text><rect x="0" y="0" width="42.2012" height="85.4852" stroke="#81B2DF" stroke-width="1.33333" stroke-miterlimit="8" fill="#81B2DF" transform="matrix(0.920505 0.390731 0.390731 -0.920505 410.023 983.428)"/><path d="M386.481 755.88 414.909 799.655 343.215 846.214 314.787 802.438Z" stroke="#81B2DF" stroke-width="1.33333" stroke-miterlimit="8" fill="#81B2DF" fill-rule="evenodd"/><path d="M402.112 748.592 428.221 788.797 356.527 835.356 330.418 795.15Z" stroke="#81B2DF" stroke-width="1.33333" stroke-miterlimit="8" fill="#81B2DF" fill-rule="evenodd"/><text fill="#FFFFFF" font-family="Calibri,Calibri_MSFontService,sans-serif" font-weight="400" font-size="24" transform="matrix(0.544639 0.838671 -0.838671 0.544639 371.132 793)">;</text><path d="M408.763 747.73 431.747 783.122 360.053 829.681 337.069 794.288Z" stroke="#81B2DF" stroke-width="1.33333" stroke-miterlimit="8" fill="#81B2DF" fill-rule="evenodd"/><path d="M385.161 869.868 343.934 798.461 398.564 766.92 439.791 838.327Z" stroke="#81B2DF" stroke-width="1.33333" stroke-miterlimit="8" fill="#81B2DF" fill-rule="evenodd"/><path d="M377.102 862.868 345.967 808.94 400.597 777.4 431.732 831.327Z" stroke="#81B2DF" stroke-width="1.33333" stroke-miterlimit="8" fill="#81B2DF" fill-rule="evenodd"/><path d="M286 773.57 264.659 693.925 362.526 667.702 383.867 747.346Z" stroke="#81B2DF" stroke-width="1.33333" stroke-miterlimit="8" fill="#81B2DF" fill-rule="evenodd"/><path d="M277.99 765.268 261.873 705.12 359.74 678.896 375.857 739.045Z" stroke="#81B2DF" stroke-width="1.33333" stroke-miterlimit="8" fill="#81B2DF" fill-rule="evenodd"/><rect x="288.5" y="625.5" width="124" height="92" stroke="#81B2DF" stroke-miterlimit="8" fill="#81B2DF"/></g></svg>