<svg width="36" height="45" xmlns="http://www.w3.org/2000/svg" xmlns:xlink="http://www.w3.org/1999/xlink" overflow="hidden"><defs><clipPath id="clip0"><path d="M1042 217 1078 217 1078 262 1042 262Z" fill-rule="evenodd" clip-rule="evenodd"/></clipPath></defs><g clip-path="url(#clip0)" transform="translate(-1042 -217)"><path d="M1048.82 221.24C1048.89 221.168 1048.97 221.098 1049.05 221.031 1051.15 219.312 1053.11 218.233 1055.73 217.527 1057.45 217.061 1058.78 217 1060.53 217L1060.54 217C1063.28 217 1066.32 217.962 1068.67 219.387 1070.18 220.305 1071.34 221.315 1072.56 222.596 1072.61 222.646 1072.65 222.691 1072.69 222.744L1073.08 223.21C1073.74 224.008 1074.21 224.74 1074.74 225.627 1075.14 226.307 1075.49 227.065 1075.79 227.802 1075.87 228.012 1075.94 228.226 1076.02 228.435 1076.23 228.981 1076.39 229.557 1076.52 230.127 1076.82 231.329 1076.97 232.568 1077 233.805 1077 233.829 1077 233.849 1077 233.872L1077 234.57C1077 234.594 1077 234.613 1077 234.637 1076.97 235.893 1076.82 237.152 1076.53 238.375 1076 240.694 1075.15 242.949 1074.07 245.061 1074.01 245.175 1073.95 245.276 1073.89 245.387 1073.87 245.426 1073.85 245.453 1073.83 245.492L1073.43 246.246C1073.41 246.267 1073.4 246.284 1073.39 246.304 1072.15 248.492 1070.74 250.73 1069.16 252.683 1068.16 253.922 1067.19 255.155 1066.11 256.335 1065.63 256.869 1065.16 257.42 1064.65 257.936 1064.26 258.33 1063.88 258.727 1063.49 259.121 1063.3 259.313 1063.09 259.484 1062.9 259.674 1062 260.597 1061.19 261 1059.91 261L1059.85 261C1058.44 261 1057.42 260.04 1056.49 259.103 1055.96 258.56 1055.39 258.029 1054.9 257.445 1054.85 257.394 1054.8 257.345 1054.75 257.293 1053.77 256.298 1052.68 255.018 1051.82 253.911 1051.74 253.815 1051.66 253.722 1051.58 253.627 1051.58 253.619 1051.57 253.613 1051.56 253.605L1050.82 252.663C1050.09 251.756 1049.38 250.72 1048.72 249.753 1048.54 249.499 1048.38 249.24 1048.21 248.983 1048.2 248.972 1048.2 248.962 1048.19 248.95L1047.74 248.241C1047.72 248.218 1047.71 248.199 1047.7 248.175 1046.01 245.378 1044.53 242.542 1043.71 239.352 1043.2 237.386 1043 235.964 1043 233.918L1043 233.895C1043 231.34 1043.74 228.544 1044.9 226.281 1044.96 226.165 1045.02 226.058 1045.05 226.016 1045.45 225.223 1045.95 224.483 1046.48 223.77 1047.03 223.017 1048.07 221.84 1048.82 221.24ZM1060 228.901C1057.28 228.901 1055.07 231.139 1055.07 233.899 1055.07 236.661 1057.28 238.898 1060 238.898 1062.72 238.898 1064.93 236.661 1064.93 233.899 1064.93 231.139 1062.72 228.901 1060 228.901Z" fill="#07485E" fill-rule="evenodd"/><path d="M1046 233.938C1046 235.917 1046.16 236.855 1046.61 238.612 1047.36 241.525 1048.73 244.106 1050.24 246.622L1050.69 247.329C1050.85 247.579 1050.99 247.801 1051.16 248.05 1051.59 248.684 1052.63 250.163 1053.11 250.758L1053.87 251.727C1053.96 251.842 1054.04 251.929 1054.13 252.045 1054.63 252.692 1056.26 254.6 1056.81 255.159 1056.91 255.259 1057.01 255.347 1057.1 255.453 1057.46 255.89 1058.13 256.536 1058.55 256.963 1058.77 257.193 1059.56 258 1059.85 258L1059.91 258C1060.3 258 1060.42 257.986 1060.85 257.544 1061.05 257.335 1061.23 257.191 1061.44 256.982 1061.83 256.578 1062.2 256.203 1062.6 255.799 1063.08 255.31 1063.52 254.776 1063.97 254.287 1065.11 253.032 1065.82 252.087 1066.88 250.779 1068.29 249.024 1069.68 246.797 1070.81 244.818L1071.21 244.066C1071.28 243.912 1071.34 243.827 1071.41 243.693 1072.38 241.809 1073.13 239.786 1073.61 237.713 1073.84 236.703 1073.98 235.647 1074 234.588L1074 233.892C1073.98 232.863 1073.85 231.84 1073.61 230.864 1073.51 230.446 1073.38 229.945 1073.23 229.55 1073.14 229.33 1073.09 229.147 1073 228.929 1072.77 228.354 1072.47 227.689 1072.17 227.181 1071.68 226.358 1071.41 225.915 1070.78 225.145L1070.4 224.681C1069.35 223.569 1068.44 222.767 1067.13 221.965 1065.25 220.823 1062.74 220 1060.53 220L1060.53 220C1058.95 220 1058.05 220.004 1056.5 220.426 1054.26 221.035 1052.7 221.92 1050.94 223.368 1050.85 223.441 1050.81 223.495 1050.72 223.567 1050.3 223.892 1049.2 225.138 1048.88 225.573 1048.46 226.145 1048.04 226.77 1047.71 227.406 1047.66 227.511 1047.61 227.572 1047.56 227.677 1046.63 229.501 1046 231.84 1046 233.915ZM1060 226.03C1064.28 226.03 1067.74 229.563 1067.74 233.92 1067.74 238.277 1064.28 241.81 1060 241.81 1055.72 241.81 1052.26 238.277 1052.26 233.92 1052.26 229.563 1055.72 226.03 1060 226.03Z" fill="#D36259" fill-rule="evenodd"/></g></svg>