<svg width="113" height="114" xmlns="http://www.w3.org/2000/svg" xmlns:xlink="http://www.w3.org/1999/xlink" overflow="hidden"><defs><clipPath id="clip0"><path d="M-206 438-93 438-93 552-206 552Z" fill-rule="evenodd" clip-rule="evenodd"/></clipPath><clipPath id="clip1"><path d="M-205 439-93 439-93 551-205 551Z" fill-rule="evenodd" clip-rule="evenodd"/></clipPath><clipPath id="clip2"><path d="M-205 439-93 439-93 551-205 551Z" fill-rule="evenodd" clip-rule="evenodd"/></clipPath><clipPath id="clip3"><path d="M-205 439-93 439-93 551-205 551Z" fill-rule="evenodd" clip-rule="evenodd"/></clipPath></defs><g clip-path="url(#clip0)" transform="translate(206 -438)"><g clip-path="url(#clip1)"><g clip-path="url(#clip2)"><g clip-path="url(#clip3)"><path d="M-129.517 533.617C-132.667 530.7-136.867 528.833-141.417 528.833-142 528.833-142.583 528.833-143.167 528.95-142.817 523.117-143.75 517.167-144.917 510.983-144.567 510.283-143.75 509.467-142.7 508.767-140.717 512.967-136.517 516-131.5 516-129.283 516-127.183 515.417-125.433 514.367L-125.433 514.367C-115.983 509.233-114.817 499.55-114.817 488.817-114.817 488.817-124.967 491.617-131.383 491.383-138.15 491.383-143.633 496.867-143.633 503.633-143.633 503.75-143.633 503.75-143.633 503.867-144.333 504.217-145.033 504.683-145.733 505.267-147.133 496.633-147.95 487.767-145.15 478.083-143.983 477.617-142.583 477.267-141.3 477.15-141.183 478.783-140.367 480.3-138.967 481.35-138.033 482.05-137.1 482.4-136.05 482.517L-136.05 482.517C-130.8 483.333-127.417 479.833-124.15 475.517-124.15 475.517-129.05 473.533-131.617 471.55-134.183 469.567-137.683 470.033-139.783 472.25-140.95 472.25-142.233 472.367-143.4 472.6-142 469.333-140.133 465.95-137.8 462.45-137.333 462.567-136.983 462.567-136.517 462.567-133.133 462.567-130.45 459.767-130.45 456.5-130.45 453.467-129.05 448.333-129.05 448.333-134.417 448.333-139.2 448.917-141.767 453.583L-141.767 453.583C-142.233 454.517-142.583 455.567-142.583 456.617-142.583 457.9-142.233 458.95-141.533 460-142.933 462.1-144.217 464.2-145.383 466.3-145.85 465.717-146.317 465.25-146.9 464.667-146.9 464.433-146.783 464.2-146.783 463.967-146.783 460.583-149.583 457.9-152.85 457.9-156.117 458.017-161.133 456.617-161.133 456.617-161.133 461.983-160.55 466.767-155.883 469.333L-155.883 469.333C-154.95 469.8-153.9 470.15-152.85 470.15-151.45 470.15-150.283 469.683-149.233 468.983-148.533 469.683-148.067 470.383-147.6 471.2-151.333 479.833-152.15 488-151.683 495.7-151.8 495.583-151.917 495.583-152.15 495.467-152.967 495.117-153.667 494.65-154.483 494.3-154.367 493.6-154.367 493.017-154.367 492.317-154.367 485.55-159.85 480.067-166.617 480.067-172.917 480.3-183.067 477.5-183.067 477.5-183.067 488.233-181.9 497.8-172.45 503.05L-172.45 503.05C-170.7 504.1-168.6 504.683-166.383 504.683-161.95 504.683-158.1 502.35-155.883 498.85-155.3 499.2-154.6 499.433-154.017 499.783-153.083 500.25-152.033 500.717-150.983 501.183-150.517 504.567-149.933 507.95-149.467 511.1-148.3 517.75-147.133 524.167-147.833 530.117-150.05 531.05-152.033 532.333-153.783 533.967-156 532.917-158.567 532.333-161.25 532.333-168.017 532.333-173.733 536.067-176.767 541.667L-116.217 541.667C-119.017 537.117-123.8 534.083-129.517 533.617Z" fill="#92D050"/></g></g></g></g></svg>