<svg width="553.27557" height="170.88977" xmlns="http://www.w3.org/2000/svg">
 <metadata id="metadata79">image/svg+xml</metadata>

 <g>
  <title>background</title>
  <rect fill="none" id="canvas_background" height="172.88977" width="555.27557" y="-1" x="-1"/>
 </g>
 <g>
  <title>Layer 1</title>
  <g stroke="null" id="Layer1001">
   <path stroke="null" fill="#04303e" fill-rule="evenodd" d="m63.562557,59.328543l2.262603,0l0,-12.363952c0,-3.316287 0.076931,-5.912167 0.256895,-7.789015c0.179964,-1.901851 0.668203,-3.520979 1.464991,-4.858484c0.796788,-1.413337 1.95323,-2.570053 3.470424,-3.443773c1.490818,-0.874818 3.161325,-1.311678 5.038173,-1.311678c2.59588,0 4.934865,0.977576 7.043056,2.930806c1.413612,1.310854 2.287606,2.904155 2.673086,4.80683c0.385481,1.876298 0.565445,4.549934 0.565445,8.019809l0,14.009456l7.531845,0c2.90443,0 5.141206,0.69403 6.657576,2.056263c1.542197,1.388609 2.313982,3.161875 2.313982,5.295068c0,2.776669 -1.105887,4.704346 -3.290734,5.809409c-2.184573,1.105887 -5.295068,1.645779 -9.382591,1.645779l-3.830077,0l0,37.786434c0,3.212704 0.103582,5.706651 0.334926,7.428537c0.231069,1.722711 0.82234,3.136322 1.799092,4.215833c1.002304,1.07951 2.595606,1.619128 4.80683,1.619128c1.182269,0 2.827224,-0.205516 4.884036,-0.642376c2.056263,-0.411307 3.675391,-0.642651 4.80683,-0.642651c1.670782,0 3.161325,0.668203 4.498006,2.004609c1.33723,1.337505 1.979606,2.982185 1.979606,4.93569c0,3.316012 -1.799092,5.835785 -5.398101,7.583498c-3.624561,1.773265 -8.817146,2.646985 -15.603032,2.646985c-6.426233,0 -11.284441,-1.079236 -14.575176,-3.238256c-3.315462,-2.15957 -5.475033,-5.140931 -6.503164,-8.971283c-1.028131,-3.8048 -1.541922,-8.894352 -1.541922,-15.268931l0,-39.457216l-2.699463,0c-2.981361,0 -5.243964,-0.69403 -6.786161,-2.108466c-1.567749,-1.387785 -2.339534,-3.186877 -2.339534,-5.346722c0,-2.133194 0.823164,-3.906459 2.442567,-5.295068c1.64468,-1.362233 4.010042,-2.056263 7.119988,-2.056263zm73.979567,9.81945l0,59.430493c0,4.113075 -0.976477,7.222746 -2.930806,9.331212c-1.95323,2.107367 -4.421349,3.16105 -7.428262,3.16105c-3.008012,0 -5.44948,-1.079236 -7.325779,-3.238256c-1.877123,-2.15957 -2.828048,-5.243964 -2.828048,-9.254006l0,-58.81367c0,-4.087248 0.950925,-7.14554 2.828048,-9.202627c1.876298,-2.055988 4.317767,-3.084119 7.325779,-3.084119c3.006913,0 5.475033,1.028131 7.428262,3.084119c1.954329,2.057087 2.930806,4.935415 2.930806,8.585803zm-10.153552,-21.232477c-2.8536,0 -5.295343,-0.873719 -7.325779,-2.622257c-2.030985,-1.747713 -3.033564,-4.240835 -3.033564,-7.454089c0,-2.879427 1.028131,-5.269791 3.11077,-7.145815c2.081815,-1.877123 4.497731,-2.828048 7.248573,-2.828048c2.672812,0 5.012621,0.848167 7.068609,2.545326c2.057087,1.721886 3.084943,4.189182 3.084943,7.428537c0,3.161875 -1.002304,5.629445 -3.007737,7.40271c-2.004883,1.77409 -4.36997,2.673636 -7.145815,2.673636zm108.398611,51.384308c0,6.14406 -0.950925,11.773504 -2.853051,16.940262c-1.927403,5.166758 -4.678245,9.61311 -8.30308,13.314877c-3.598185,3.727594 -7.942328,6.554818 -12.954949,8.534424c-5.012621,1.979057 -10.667618,2.981361 -16.939713,2.981361c-6.246268,0 -11.849886,-1.002304 -16.811128,-3.006913c-4.960967,-2.005433 -9.279558,-4.884036 -12.929946,-8.637182c-3.624836,-3.727594 -6.400406,-8.148119 -8.276704,-13.237946c-1.877123,-5.115379 -2.828048,-10.744824 -2.828048,-16.91471c0,-6.220441 0.950925,-11.926817 2.8536,-17.093575c1.927677,-5.166758 4.652143,-9.588382 8.225325,-13.263498c3.573182,-3.650388 7.892048,-6.477612 12.955773,-8.457492c5.064,-1.979057 10.667892,-2.981361 16.811128,-2.981361c6.220716,0 11.875713,1.002304 16.939713,3.007188c5.064,2.005433 9.408143,4.884036 13.032155,8.611355c3.624561,3.701767 6.375403,8.122567 8.251701,13.263498c1.876298,5.115379 2.827224,10.77065 2.827224,16.939713zm-20.666483,0c0,-8.379462 -1.851021,-14.882626 -5.526412,-19.561145c-3.701767,-4.652692 -8.637182,-6.991677 -14.857898,-6.991677c-4.035869,0 -7.557672,1.028131 -10.616238,3.109946c-3.059116,2.081815 -5.423653,5.166758 -7.069433,9.228454c-1.670507,4.061421 -2.493122,8.816322 -2.493122,14.214423c0,5.373099 0.822615,10.076621 2.441743,14.086662c1.645779,4.010316 3.958937,7.094435 6.992502,9.228454c3.03274,2.133194 6.631749,3.186877 10.744549,3.186877c6.220716,0 11.156131,-2.33871 14.857898,-7.042782c3.675391,-4.678519 5.526412,-11.181683 5.526412,-19.459211z" id="path11"/>
   <path stroke="null" fill="#ffffff" fill-rule="evenodd" d="m264.475398,70.278883l16.631164,46.73244l17.91619,-48.762876c1.413612,-3.907283 2.776669,-6.683678 4.138627,-8.328633c1.362233,-1.619128 3.41932,-2.441743 6.169337,-2.441743c2.622257,0 4.832657,0.873994 6.657301,2.647259c1.825744,1.747713 2.750842,3.778973 2.750842,6.092131c0,0.899546 -0.154137,1.954054 -0.488239,3.161875c-0.334101,1.208095 -0.69403,2.338985 -1.130889,3.393493c-0.43686,1.053683 -0.925923,2.261779 -1.465815,3.598185l-19.715283,48.968118c-0.565445,1.388884 -1.260024,3.187976 -2.159845,5.346722c-0.873719,2.159845 -1.850471,3.984489 -2.929707,5.526686c-1.080335,1.542746 -2.41674,2.725015 -3.984489,3.573182c-1.593576,0.848167 -3.496251,1.285027 -5.75803,1.285027c-2.904979,0 -5.218137,-0.668203 -6.96585,-2.004609c-1.722711,-1.310854 -3.007737,-2.776394 -3.830352,-4.36997c-0.82234,-1.567749 -2.236776,-4.704071 -4.190006,-9.357039l-19.56197,-48.4285c-0.462687,-1.207821 -0.925373,-2.415916 -1.387785,-3.623737c-0.488513,-1.20892 -0.873994,-2.41674 -1.208095,-3.676215c-0.334101,-1.2592 -0.488239,-2.339534 -0.488239,-3.239081c0,-1.413612 0.43686,-2.801397 1.285027,-4.189456c0.848167,-1.388609 2.030436,-2.519499 3.521803,-3.393218c1.51637,-0.873994 3.135498,-1.310854 4.909863,-1.310854c3.392394,0 5.757755,0.976752 7.042782,2.929982c1.259475,1.979881 2.673086,5.269516 4.24166,9.87083zm118.989847,59.250529c-4.986794,3.855904 -9.793898,6.734507 -14.420764,8.663009c-4.652692,1.927403 -9.87083,2.878328 -15.628859,2.878328c-5.269516,0 -9.922209,-1.053683 -13.906149,-3.135498c-3.984489,-2.082639 -7.069433,-4.884036 -9.228179,-8.457218c-2.159845,-3.573457 -3.239355,-7.428537 -3.239355,-11.592991c0,-5.629445 1.77354,-10.410722 5.346722,-14.369385c3.573457,-3.983665 8.483045,-6.631749 14.729313,-7.993982c1.285027,-0.308275 4.524107,-0.976752 9.69114,-2.03126c5.166758,-1.053683 9.613659,-2.004609 13.28905,-2.904155c3.676215,-0.873994 7.686257,-1.928502 12.004848,-3.187701c-0.25772,-5.423928 -1.33723,-9.408418 -3.264908,-11.927092c-1.95323,-2.544501 -5.937719,-3.804525 -12.029575,-3.804525c-5.218412,0 -9.151522,0.719582 -11.773779,2.185397c-2.647259,1.439164 -4.909038,3.623737 -6.785886,6.554543c-1.876298,2.904155 -3.212704,4.807104 -3.984489,5.75803c-0.796788,0.925098 -2.467295,1.387785 -5.012621,1.387785c-2.313158,0 -4.317767,-0.745409 -5.989098,-2.235952c-1.670782,-1.464991 -2.518949,-3.367666 -2.518949,-5.680824c0,-3.624836 1.285301,-7.146639 3.830352,-10.564859c2.570328,-3.419045 6.554818,-6.220441 11.978471,-8.431666c5.423928,-2.2104 12.183987,-3.315462 20.281552,-3.315462c9.022113,0 16.142925,1.07951 21.309683,3.212704c5.166758,2.134018 8.816322,5.500859 10.95034,10.128c2.133194,4.626865 3.212704,10.744549 3.212704,18.379426c0,4.831832 -0.024728,8.919355 -0.051379,12.28702c-0.024728,3.367666 -0.051379,7.119988 -0.102758,11.233062c0,3.855904 0.642376,7.890949 1.928227,12.081229c1.285027,4.164454 1.901851,6.863916 1.901851,8.071737c0,2.107642 -0.976477,4.035869 -2.956358,5.75803c-2.004609,1.721886 -4.240835,2.595606 -6.760334,2.595606c-2.107367,0 -4.190006,-0.976477 -6.246268,-2.955534c-2.055988,-1.979881 -4.241385,-4.832657 -6.554543,-8.585803zm-1.362233,-29.791903c-3.007737,1.105063 -7.377707,2.287331 -13.135737,3.495427c-5.732203,1.233648 -9.716692,2.15957 -11.927092,2.725015c-2.210949,0.591272 -4.318591,1.722161 -6.3232,3.392668c-2.005433,1.697158 -3.007737,4.035869 -3.007737,7.069433c0,3.109946 1.182269,5.75803 3.547355,7.942603c2.338985,2.185397 5.423928,3.29046 9.253456,3.29046c4.061421,0 7.814842,-0.899546 11.233886,-2.673636c3.444047,-1.799092 5.963546,-4.086698 7.582674,-6.914471c1.850471,-3.11077 2.776394,-8.251701 2.776394,-15.397516l0,-2.929982zm59.661837,-30.89779l0,2.493122c3.623737,-4.781277 7.582674,-8.276704 11.875438,-10.51348c4.293039,-2.236227 9.227629,-3.341289 14.806519,-3.341289c5.423653,0 10.255486,1.182269 14.548525,3.546806c4.267212,2.339534 7.454913,5.680824 9.562555,9.999415c1.361958,2.519499 2.235952,5.218137 2.647809,8.148943c0.385755,2.904155 0.591272,6.605922 0.591272,11.130304l0,38.274948c0,4.113075 -0.95175,7.222746 -2.828048,9.331212c-1.876024,2.107367 -4.344143,3.16105 -7.351331,3.16105c-3.059116,0 -5.552239,-1.079236 -7.48074,-3.238256c-1.901851,-2.15957 -2.852776,-5.243964 -2.852776,-9.254006l0,-34.290458c0,-6.761158 -0.950925,-11.953468 -2.828048,-15.551653c-1.876024,-3.573457 -5.62917,-5.372549 -11.258614,-5.372549c-3.650388,0 -6.991677,1.07951 -10.025242,3.264083c-3.006913,2.185397 -5.218137,5.192585 -6.605922,9.022937c-1.002304,3.059116 -1.51637,8.765767 -1.51637,17.170781l0,25.756859c0,4.164454 -0.976752,7.274125 -2.905254,9.356764c-1.927403,2.081815 -4.421349,3.135498 -7.454089,3.135498c-2.956358,0 -5.398101,-1.079236 -7.300776,-3.238256c-1.901851,-2.15957 -2.852776,-5.243964 -2.852776,-9.254006l0,-59.430493c0,-3.907283 0.848167,-6.837265 2.544501,-8.765492c1.722711,-1.927677 4.035869,-2.90443 6.992227,-2.90443c1.799092,0 3.444047,0.43686 4.884036,1.285027c1.464991,0.848167 2.621707,2.133194 3.495427,3.830352c0.873719,1.696334 1.311678,3.803701 1.311678,6.246268z" id="path13"/>
  </g>
 </g>
</svg>