<?xml version="1.0" encoding="UTF-8" standalone="no"?>
<svg
   xmlns:dc="http://purl.org/dc/elements/1.1/"
   xmlns:cc="http://creativecommons.org/ns#"
   xmlns:rdf="http://www.w3.org/1999/02/22-rdf-syntax-ns#"
   xmlns:svg="http://www.w3.org/2000/svg"
   xmlns="http://www.w3.org/2000/svg"
   xmlns:sodipodi="http://sodipodi.sourceforge.net/DTD/sodipodi-0.dtd"
   xmlns:inkscape="http://www.inkscape.org/namespaces/inkscape"
   inkscape:version="1.1-dev (227e005, 2020-04-16)"
   sodipodi:docname="Tiovan Logo_app4.svg"
   version="1.1"
   width="222.27557"
   height="220.88977"
   id="svg73"
   viewBox="0 0 222.27557 220.88977">
  <sodipodi:namedview
     inkscape:current-layer="svg73"
     inkscape:window-maximized="0"
     inkscape:window-y="0"
     inkscape:window-x="0"
     inkscape:cy="295.75682"
     inkscape:cx="269.47047"
     inkscape:zoom="0.63903853"
     lock-margins="false"
     width="595.27557px"
     showgrid="false"
     id="namedview1735"
     inkscape:window-height="696"
     inkscape:window-width="1119"
     inkscape:pageshadow="2"
     inkscape:pageopacity="0"
     guidetolerance="10"
     gridtolerance="10"
     objecttolerance="10"
     borderopacity="1"
     bordercolor="#666666"
     pagecolor="#ffffff" />
  <metadata
     id="metadata79">
    <rdf:RDF>
      <cc:Work
         rdf:about="">
        <dc:format>image/svg+xml</dc:format>
        <dc:type
           rdf:resource="http://purl.org/dc/dcmitype/StillImage" />
        <dc:title></dc:title>
      </cc:Work>
    </rdf:RDF>
  </metadata>
  <defs
     id="defs77" />
  <g
     transform="translate(-186.21726,-284.80287)"
     id="Layer1000">
    <path
       d="m 220.2568,452.8576 h 67.0439 19.8059 67.044 L 362.757,410.1168 h -44.2568 -42.5931 -44.2567 z"
       style="fill:#24ae5f;fill-rule:evenodd"
       id="path4" />
    <path
       d="m 234.1264,438.5523 c -2.7056,-0.6693 -5.3971,-1.4471 -8.0555,-2.2847 l -1.2829,4.0535 c 2.7402,0.8634 5.5145,1.6656 8.3038,2.3556 z m 136.0573,-2.2499 c -2.0233,-0.7512 -4.0543,-1.4145 -6.1276,-2.0137 l -1.1696,4.0881 c 1.9639,0.5635 3.8954,1.1988 5.8108,1.9094 z m -10.3416,-3.1144 c -2.8264,-0.6653 -5.654,-1.1948 -8.5255,-1.6245 l -0.6202,4.2066 c 2.751,0.4079 5.4695,0.921 8.1768,1.5582 z m -12.8279,-2.1713 c -2.8882,-0.2954 -5.7393,-0.5015 -8.6417,-0.5967 l -0.131,4.2497 c 2.8004,0.0989 5.5347,0.29 8.322,0.5751 z m -12.9711,-0.6571 c -2.8899,0.0139 -5.7634,0.1287 -8.6453,0.3418 l 0.3248,4.2395 c 2.7757,-0.2111 5.5619,-0.316 8.3455,-0.3293 z m -12.9503,0.7424 c -2.7936,0.254 -5.8065,0.7523 -8.5683,1.2676 l 0.7835,4.1794 c 2.6493,-0.5006 5.5718,-0.9773 8.2525,-1.2211 z m -12.8137,2.141 c -2.8282,0.6395 -5.6118,1.387 -8.3798,2.2507 l 1.2835,4.0535 c 2.6351,-0.837 5.3447,-1.5491 8.0413,-2.1588 z m -12.432,3.5895 c -2.6591,0.8643 -5.309,1.6067 -8.0209,2.2847 l 1.0018,4.1324 c 2.8128,-0.6956 5.5769,-1.4774 8.3327,-2.3732 z m -12.0914,3.1972 c -2.7289,0.5539 -5.4635,1.002 -8.227,1.3456 l 0.5187,4.2202 c 2.8746,-0.3588 5.7144,-0.8226 8.5536,-1.3989 z m -12.3715,1.7742 c -2.7814,0.2302 -5.537,0.3453 -8.3274,0.3679 l 0.017,4.252 c 2.8996,-0.0218 5.7697,-0.1429 8.6596,-0.3821 z m -12.4957,0.3081 c -2.7726,-0.0904 -5.5644,-0.2888 -8.3217,-0.5935 l -0.466,4.2264 c 2.8624,0.3166 5.7608,0.5224 8.6391,0.6163 z m -12.4631,-1.1197 c -2.7459,-0.3985 -5.5114,-0.8917 -8.2213,-1.4879 l -0.9088,4.1539 c 2.8017,0.6191 5.6713,1.1285 8.511,1.5407 z"
       style="fill:#efce4a;fill-rule:evenodd"
       id="path6" />
    <path
       d="m 233.8834,406.5746 h 7.9512 2.3027 106.6193 3.2463 6.9841 c 2.0601,0 4.0252,0.7491 5.5318,1.9556 1.3172,1.0551 2.3228,2.5049 2.6968,4.0942 l 8.4466,35.8598 c 0.1159,0.4923 0.1714,0.9429 0.1714,1.3477 0,1.3097 -0.4797,2.5264 -1.324,3.503 -0.9841,1.1381 -2.4258,1.9212 -4.1915,2.1769 -0.4262,0.0616 -0.8238,0.0938 -1.1869,0.0938 h -147.392 c -0.3628,0 -0.7604,-0.0322 -1.1872,-0.0938 -1.766,-0.2559 -3.2072,-1.0388 -4.1912,-2.1769 -0.8443,-0.9766 -1.3241,-2.1929 -1.3241,-3.5028 h 0.015 c -2e-4,-0.4463 0.0507,-0.8986 0.1565,-1.3479 l 8.4466,-35.8598 c 0.374,-1.5893 1.3796,-3.0391 2.6968,-4.0942 1.5066,-1.2065 3.4716,-1.9556 5.5318,-1.9556 z m 10.2539,5.9641 h -2.3027 -7.9512 c -0.0518,0 5e-4,0.062 -0.124,0.1616 -0.3132,0.2507 -0.5543,0.6032 -0.6466,0.9956 l -8.4646,35.9456 h 145.57 l -0.014,-0.0857 -8.4466,-35.8599 c -0.0923,-0.3924 -0.3334,-0.7449 -0.6466,-0.9956 -0.1245,-0.0996 -0.0722,-0.1616 -0.124,-0.1616 h -6.9841 -3.2463 z"
       style="fill:#07485e;fill-rule:evenodd"
       id="path8" />
  </g>
  <path
     d="m 152.66494,93.665738 2.7314,14.134602 13.8609,3.7007 c 1.5848,0.4232 2.6504,1.8105 2.6504,3.4512 v 24.42549 c 0,1.9673 -1.6047,3.572 -3.572,3.572 H 54.100046 c -1.9673,0 -3.5719,-1.6047 -3.5719,-3.572 V 93.263438 c 0,-0.9836 0.3506,-1.8303 1.0462,-2.5256 l 6.4588,-6.4585 c 0.6956,-0.6956 1.542,-1.0463 2.5256,-1.0463 h 79.385094 c 6.2842,0 11.6861,4.1593 12.7211,10.4327 z"
     style="fill:#07485e;fill-rule:evenodd"
     id="path16" />
  <path
     d="m 60.558746,86.805038 h 55.998494 11.6163 11.7703 c 4.724,0 8.4977,3.0747 9.2038,7.4866 l 3.1661,16.382802 16.0219,4.2778 v 24.42549 h -10.6789 -41.0995 -62.457194 v -11.2541 -13.17139 -21.688802 z m 84.453794,20.123402 -6.2689,-3.6779 -1.7308,-9.987102 h 2.9308 c 1.5281,0 2.639,0.8124 2.8298,2.0696 z"
     style="fill:#ffffff;fill-rule:evenodd"
     id="path18" />
  <path
     d="m 116.55724,93.263438 v 16.899602 h 29.0797 l -2.8635,-14.830002 c -0.1908,-1.2572 -1.3017,-2.0696 -2.8298,-2.0696 z"
     style="fill:#b0d3f0;fill-rule:evenodd"
     id="path20" />
  <path
     d="m 155.32264,139.37773 c 0,-5.2401 -4.2477,-9.4878 -9.4875,-9.4878 -5.2399,0 -9.4876,4.2477 -9.4876,9.4878 0,5.2399 4.2477,9.4876 9.4876,9.4876 5.2398,0 9.4875,-4.2477 9.4875,-9.4876 z"
     style="fill:#a2abb8;fill-rule:evenodd"
     id="path22" />
  <path
     d="m 145.83514,151.89903 c -6.9046,0 -12.5215,-5.6169 -12.5215,-12.5214 0,-6.9043 5.6169,-12.5213 12.5215,-12.5213 6.9043,0 12.5213,5.6169 12.5213,12.5213 0,6.9044 -5.6169,12.5214 -12.5213,12.5214 z m 0,-18.9749 c -3.5586,0 -6.4537,2.8949 -6.4537,6.4535 0,3.5586 2.8951,6.4537 6.4537,6.4537 3.5585,0 6.4535,-2.8951 6.4535,-6.4537 0,-3.5586 -2.895,-6.4535 -6.4535,-6.4535 z"
     style="fill:#04303e;fill-rule:evenodd"
     id="path24" />
  <path
     d="m 86.138946,139.37773 c 0,-5.2401 -4.2478,-9.4878 -9.4876,-9.4878 -5.2398,0 -9.4876,4.2477 -9.4876,9.4878 0,5.2399 4.2478,9.4876 9.4876,9.4876 5.2398,0 9.4876,-4.2477 9.4876,-9.4876 z"
     style="fill:#a2abb8;fill-rule:evenodd"
     id="path26" />
  <path
     d="m 76.651346,151.89903 c -6.9043,0 -12.5214,-5.6169 -12.5214,-12.5214 0,-6.9043 5.6169,-12.5213 12.5214,-12.5213 6.9044,0 12.5213,5.6169 12.5213,12.5213 0,6.9044 -5.6169,12.5214 -12.5213,12.5214 z m 0,-18.9749 c -3.5585,0 -6.4536,2.8949 -6.4536,6.4535 0,3.5586 2.8951,6.4537 6.4536,6.4537 3.5586,0 6.4536,-2.8951 6.4536,-6.4537 0,-3.5586 -2.895,-6.4535 -6.4536,-6.4535 z"
     style="fill:#04303e;fill-rule:evenodd"
     id="path28" />
  <path
     d="m 116.55704,87.698338 h 6.0678 v 27.810602 h -6.0678 z"
     style="fill:#e6e6e6;fill-rule:evenodd"
     id="path30" />
  <path
     d="M 94.110246,93.263438 H 118.01084 V 110.16304 H 94.110246 Z"
     style="fill:#b0d3f0;fill-rule:evenodd"
     id="path32" />
  <path
     d="m 54.100046,113.19864 h 80.740594 v 11.3307 H 54.100046 Z"
     style="fill:#e8a824;fill-rule:evenodd"
     id="path34" />
  <path
     d="m 122.87674,113.19854 h 38.89 l 6.5687,1.7539 v 9.577 h -45.4587 z"
     style="fill:#e8a824;fill-rule:evenodd"
     id="path36" />
  <path
     d="m 160.12574,115.57384 h 8.2097 v 6.5802 h -8.2097 z"
     style="fill:#fffce5;fill-rule:evenodd"
     id="path38" />
  <path
     d="m 125.44994,99.297138 c 0.2004,0 0.4007,-0.0767 0.5533,-0.2293 l 3.1302,-3.1303 c 0.306,-0.306 0.306,-0.8005 0,-1.1065 -0.306,-0.306 -0.8005,-0.306 -1.1065,0 l -3.1303,3.1302 c -0.3059,0.306 -0.3059,0.8006 0,1.1066 0.1527,0.1526 0.353,0.2293 0.5533,0.2293 z"
     style="fill:#ffffff;fill-rule:evenodd"
     id="path40" />
  <path
     d="m 125.44994,103.20984 c 0.2004,0 0.4007,-0.0766 0.5533,-0.2293 l 1.5651,-1.5651 c 0.306,-0.306 0.306,-0.8005 0,-1.1065 -0.306,-0.306 -0.8006,-0.306 -1.1065,0 l -1.5652,1.5651 c -0.3059,0.306 -0.3059,0.8006 0,1.1065 0.1527,0.1526 0.353,0.2293 0.5533,0.2293 z"
     style="fill:#ffffff;fill-rule:evenodd"
     id="path42" />
  <path
     d="m 128.02454,98.741438 c -0.1416,0.1479 -0.2269,0.3522 -0.2269,0.5557 0,0.2034 0.0853,0.4069 0.2269,0.5477 0.1479,0.1479 0.3436,0.234802 0.5556,0.234802 0.2035,0 0.407,-0.0861 0.5556,-0.226902 0.1409,-0.1487 0.227,-0.3522 0.227,-0.5556 0,-0.2035 -0.0861,-0.4078 -0.227,-0.5557 -0.2895,-0.2895 -0.8216,-0.2895 -1.1112,0 z"
     style="fill:#ffffff;fill-rule:evenodd"
     id="path44" />
  <path
     d="m 129.59204,98.285238 c 0.1526,0.1526 0.3529,0.2293 0.5532,0.2293 0.2004,0 0.4007,-0.0767 0.5533,-0.2293 l 2.3477,-2.3477 c 0.306,-0.306 0.306,-0.8005 0,-1.1065 -0.306,-0.306 -0.8006,-0.306 -1.1066,0 l -2.3476,2.3477 c -0.306,0.306 -0.306,0.8005 0,1.1065 z"
     style="fill:#ffffff;fill-rule:evenodd"
     id="path46" />
  <path
     d="m 131.93964,98.743838 -7.043,7.043002 c -0.3059,0.306 -0.3059,0.8005 0,1.1065 0.1527,0.1526 0.353,0.2293 0.5533,0.2293 0.2004,0 0.4007,-0.0767 0.5533,-0.2293 l 7.043,-7.043002 c 0.306,-0.306 0.306,-0.8005 0,-1.1065 -0.306,-0.306 -0.8006,-0.306 -1.1066,0 z"
     style="fill:#ffffff;fill-rule:evenodd"
     id="path48" />
  <path
     d="m 134.61364,97.176338 c -0.2895,-0.2895 -0.8217,-0.2895 -1.1112,0 -0.1416,0.1479 -0.227,0.3522 -0.227,0.5556 0,0.2035 0.0854,0.407 0.227,0.5557 0.1479,0.1408 0.3522,0.2269 0.5556,0.2269 0.2035,0 0.407,-0.0861 0.5556,-0.2269 0.1409,-0.1487 0.227,-0.3522 0.227,-0.5557 0,-0.2034 -0.0861,-0.4077 -0.227,-0.5556 z"
     style="fill:#ffffff;fill-rule:evenodd"
     id="path50" />
  <path
     d="m 61.680446,93.263438 h 27.5601 v 16.899602 h -31.6043 V 97.307638 c 0,-2.2243 1.8196,-4.0442 4.0442,-4.0442 z"
     style="fill:#b0d3f0;fill-rule:evenodd"
     id="path52" />
  <path
     d="m 60.061146,99.297138 c 0.2003,0 0.4007,-0.0767 0.5533,-0.2293 l 3.1302,-3.1303 c 0.306,-0.306 0.306,-0.8005 0,-1.1065 -0.306,-0.306 -0.8006,-0.306 -1.1066,0 l -3.1302,3.1302 c -0.306,0.306 -0.306,0.8006 0,1.1066 0.1526,0.1526 0.353,0.2293 0.5533,0.2293 z"
     style="fill:#ffffff;fill-rule:evenodd"
     id="path54" />
  <path
     d="m 60.061146,103.20984 c 0.2003,0 0.4007,-0.0766 0.5533,-0.2293 l 1.5651,-1.5651 c 0.306,-0.306 0.306,-0.8005 0,-1.1065 -0.306,-0.306 -0.8006,-0.306 -1.1066,0 l -1.5651,1.5651 c -0.306,0.306 -0.306,0.8006 0,1.1065 0.1526,0.1526 0.353,0.2293 0.5533,0.2293 z"
     style="fill:#ffffff;fill-rule:evenodd"
     id="path56" />
  <path
     d="m 62.635746,98.741438 c -0.1416,0.1479 -0.2269,0.3522 -0.2269,0.5557 0,0.2034 0.0853,0.4069 0.2269,0.5477 0.1479,0.1479 0.3435,0.234802 0.5556,0.234802 0.2035,0 0.4069,-0.0861 0.5556,-0.226902 0.1409,-0.1487 0.227,-0.3522 0.227,-0.5556 0,-0.2035 -0.0861,-0.4078 -0.227,-0.5557 -0.2895,-0.2895 -0.8217,-0.2895 -1.1112,0 z"
     style="fill:#ffffff;fill-rule:evenodd"
     id="path58" />
  <path
     d="m 64.203246,98.285238 c 0.1526,0.1526 0.3529,0.2293 0.5532,0.2293 0.2004,0 0.4007,-0.0767 0.5533,-0.2293 l 2.3477,-2.3477 c 0.3059,-0.306 0.3059,-0.8005 0,-1.1065 -0.306,-0.306 -0.8006,-0.306 -1.1066,0 l -2.3477,2.3477 c -0.3059,0.306 -0.3059,0.8005 10e-5,1.1065 z"
     style="fill:#ffffff;fill-rule:evenodd"
     id="path60" />
  <path
     d="m 66.550846,98.743838 -7.043,7.043002 c -0.306,0.306 -0.306,0.8005 0,1.1065 0.1526,0.1526 0.353,0.2293 0.5533,0.2293 0.2003,0 0.4007,-0.0767 0.5533,-0.2293 l 7.043,-7.043002 c 0.3059,-0.306 0.3059,-0.8005 0,-1.1065 -0.306,-0.306 -0.8006,-0.306 -1.1066,0 z"
     style="fill:#ffffff;fill-rule:evenodd"
     id="path62" />
  <path
     d="m 69.224846,97.176338 c -0.2896,-0.2895 -0.8217,-0.2895 -1.1112,0 -0.1417,0.1479 -0.227,0.3522 -0.227,0.5556 0,0.2035 0.0853,0.407 0.227,0.5557 0.1479,0.1408 0.3521,0.2269 0.5556,0.2269 0.2035,0 0.4069,-0.0861 0.5556,-0.2269 0.1409,-0.1487 0.227,-0.3522 0.227,-0.5557 0,-0.2034 -0.0861,-0.4077 -0.227,-0.5556 z"
     style="fill:#ffffff;fill-rule:evenodd"
     id="path64" />
  <path
     d="m 75.896746,116.78364 h -3.3562 v 1.8085 h 3.0909 c 0.2276,0 0.3971,0.0513 0.5085,0.1522 0.1131,0.1012 0.1678,0.2365 0.1678,0.4026 0,0.1661 -0.0547,0.303 -0.1644,0.4076 -0.1114,0.1043 -0.2809,0.1576 -0.5119,0.1576 h -3.0909 v 2.0959 h 3.471 c 0.2347,0 0.411,0.0547 0.5292,0.1627 0.12,0.1078 0.1798,0.2535 0.1798,0.4332 0,0.1729 -0.0598,0.3152 -0.1798,0.4229 -0.1182,0.108 -0.2945,0.1627 -0.5292,0.1627 h -4.0481 c -0.3238,0 -0.5565,-0.072 -0.6988,-0.2157 -0.142,-0.144 -0.214,-0.3767 -0.214,-0.697 v -5.531 c 0,-0.214 0.0326,-0.3889 0.0958,-0.5241 0.0635,-0.1352 0.1627,-0.2345 0.2982,-0.2963 0.1352,-0.0615 0.3081,-0.0924 0.5188,-0.0924 h 3.9333 c 0.2381,0 0.4144,0.053 0.5292,0.1576 0.1148,0.1061 0.173,0.2447 0.173,0.4145 0,0.1746 -0.0582,0.3149 -0.173,0.4212 -0.1148,0.1043 -0.2911,0.1573 -0.5292,0.1573 z m 8.8668,4.0003 c 0,0.4436 -0.1148,0.8424 -0.3441,1.197 -0.2279,0.3544 -0.5636,0.6319 -1.0052,0.8323 -0.4419,0.2004 -0.9658,0.2996 -1.5704,0.2996 -0.726,0 -1.3255,-0.1369 -1.7963,-0.4093 -0.3339,-0.197 -0.6044,-0.4606 -0.8133,-0.7895 -0.2089,-0.3288 -0.3135,-0.6488 -0.3135,-0.9606 0,-0.1797 0.0635,-0.3339 0.1885,-0.464 0.125,-0.1285 0.2841,-0.1917 0.4777,-0.1917 0.1576,0 0.2894,0.0496 0.3974,0.1505 0.1094,0.0995 0.2018,0.2484 0.2789,0.4471 0.0924,0.2327 0.1953,0.4297 0.3033,0.5856 0.1094,0.1576 0.2619,0.2877 0.4589,0.3903 0.1985,0.1012 0.457,0.1525 0.779,0.1525 0.4402,0 0.7997,-0.1029 1.0755,-0.3084 0.2758,-0.2052 0.4144,-0.4623 0.4144,-0.7704 0,-0.2449 -0.0737,-0.4436 -0.2225,-0.5942 -0.1491,-0.1525 -0.3427,-0.269 -0.5789,-0.3495 -0.2347,-0.0802 -0.5516,-0.1661 -0.9453,-0.2568 -0.5275,-0.1233 -0.9709,-0.2687 -1.3255,-0.4331 -0.356,-0.1661 -0.6386,-0.3921 -0.8476,-0.6781 -0.2089,-0.286 -0.3135,-0.6406 -0.3135,-1.0669 0,-0.4043 0.1097,-0.7637 0.3306,-1.0789 0.2211,-0.3132 0.5411,-0.5547 0.9589,-0.7243 0.4178,-0.1695 0.9094,-0.2534 1.4746,-0.2534 0.4501,0 0.8407,0.0564 1.1713,0.1678 0.3288,0.1131 0.6026,0.262 0.82,0.4471 0.216,0.1848 0.3751,0.3801 0.4763,0.5839 0.0992,0.2035 0.1505,0.4039 0.1505,0.5975 0,0.1764 -0.0632,0.3374 -0.1882,0.4794 -0.1251,0.1423 -0.2827,0.2123 -0.4692,0.2123 -0.1712,0 -0.2999,-0.0428 -0.3889,-0.1267 -0.089,-0.0856 -0.1848,-0.2259 -0.2877,-0.4195 -0.1352,-0.2773 -0.2945,-0.4947 -0.4828,-0.6506 -0.1868,-0.1559 -0.4881,-0.233 -0.9042,-0.233 -0.3835,0 -0.6951,0.0839 -0.9298,0.2534 -0.2364,0.1695 -0.3546,0.3716 -0.3546,0.6098 0,0.1471 0.0394,0.2738 0.1199,0.3818 0.0805,0.1063 0.1919,0.1987 0.3322,0.2758 0.1406,0.0771 0.2827,0.1369 0.4264,0.1814 0.144,0.0428 0.3821,0.1063 0.7126,0.1902 0.4141,0.0975 0.7909,0.2035 1.1268,0.3217 0.3356,0.1165 0.6213,0.2586 0.8577,0.4264 0.2364,0.1661 0.4196,0.3787 0.5514,0.6338 0.1318,0.2568 0.1987,0.57 0.1987,0.9417 z m 8.8033,-0.1182 c 0,0.2347 -0.0564,0.4881 -0.173,0.7605 -0.1148,0.2721 -0.2962,0.5392 -0.5445,0.8014 -0.2466,0.2636 -0.5632,0.4759 -0.947,0.6403 -0.3853,0.1627 -0.834,0.2449 -1.3459,0.2449 -0.387,0 -0.7399,-0.036 -1.0582,-0.1097 -0.3169,-0.0734 -0.6063,-0.1882 -0.8649,-0.3441 -0.2585,-0.1542 -0.4983,-0.3597 -0.7157,-0.6131 -0.1936,-0.2311 -0.3597,-0.4879 -0.4966,-0.7739 -0.1369,-0.286 -0.2398,-0.5924 -0.3082,-0.9162 -0.0686,-0.3254 -0.1029,-0.6695 -0.1029,-1.0343 0,-0.5908 0.0857,-1.1217 0.2586,-1.5891 0.1715,-0.4692 0.4198,-0.87 0.7398,-1.2022 0.322,-0.3322 0.697,-0.5856 1.1285,-0.7602 0.4317,-0.173 0.8923,-0.2603 1.3802,-0.2603 0.5961,0 1.125,0.1182 1.5908,0.3561 0.464,0.2364 0.8203,0.5309 1.0686,0.8804 0.2466,0.3492 0.3717,0.678 0.3717,0.9896 0,0.1712 -0.0618,0.3203 -0.1817,0.4521 -0.1197,0.1301 -0.2654,0.1953 -0.4366,0.1953 -0.1902,0 -0.3339,-0.0462 -0.428,-0.1355 -0.0961,-0.0907 -0.2021,-0.2463 -0.3186,-0.4674 -0.1953,-0.3646 -0.423,-0.637 -0.6849,-0.8184 -0.2639,-0.18 -0.5856,-0.2707 -0.9708,-0.2707 -0.6132,0 -1.0996,0.233 -1.4627,0.697 -0.3629,0.4658 -0.5446,1.1268 -0.5446,1.9829 0,0.572 0.0805,1.048 0.2416,1.4284 0.1593,0.3801 0.3872,0.6624 0.6817,0.8509 0.2945,0.1865 0.6386,0.2809 1.0341,0.2809 0.4283,0 0.7894,-0.1063 1.0856,-0.3186 0.2963,-0.2123 0.5191,-0.5241 0.6696,-0.9365 0.0635,-0.1937 0.1423,-0.3513 0.2364,-0.4746 0.0924,-0.1216 0.2432,-0.1831 0.4504,-0.1831 0.178,0 0.3305,0.0615 0.4572,0.1865 0.1268,0.1233 0.19,0.2775 0.19,0.4607 z m 5.842704,-5.156 c 0.76369,0 1.41789,0.1542 1.96419,0.4641 0.5462,0.3081 0.9606,0.7483 1.2413,1.3186 0.2809,0.5701 0.4215,1.2396 0.4215,2.0087 0,0.5683 -0.0771,1.0856 -0.2313,1.5497 -0.1542,0.4657 -0.3836,0.8682 -0.692,1.2089 -0.3081,0.3408 -0.6848,0.601 -1.1336,0.7824 -0.4484,0.18 -0.9606,0.2707 -1.53949,0.2707 -0.5751,0 -1.0907,-0.0924 -1.544504,-0.2792 -0.4553,-0.1848 -0.834,-0.4467 -1.1387,-0.7843 -0.3048,-0.3374 -0.5344,-0.743 -0.69,-1.2192 -0.1559,-0.4743 -0.233,-0.9879 -0.233,-1.5395 0,-0.565 0.0805,-1.082 0.2432,-1.5548 0.1627,-0.4709 0.3972,-0.8717 0.7056,-1.2039 0.3064,-0.3305 0.6814,-0.5839 1.1233,-0.7585 0.440004,-0.1764 0.941704,-0.2637 1.503504,-0.2637 z m 2.11639,3.7809 c 0,-0.5375 -0.0873,-1.0052 -0.2602,-1.4006 -0.1747,-0.394 -0.423,-0.692 -0.745,-0.8958 -0.3217,-0.2018 -0.6933,-0.303 -1.11119,-0.303 -0.2962,0 -0.572,0.0567 -0.8237,0.1678 -0.2534,0.1131 -0.4708,0.2758 -0.652504,0.4898 -0.1815,0.2141 -0.3252,0.4882 -0.4315,0.8204 -0.1043,0.3339 -0.1576,0.7072 -0.1576,1.1214 0,0.4195 0.0533,0.7965 0.1576,1.1355 0.1063,0.3374 0.2551,0.618 0.447,0.8408 0.191704,0.2225 0.412804,0.3886 0.661104,0.4983 0.25,0.1111 0.5221,0.1661 0.82,0.1661 0.38189,0 0.73139,-0.0961 1.05139,-0.286 0.3186,-0.1902 0.572,-0.4847 0.7623,-0.8835 0.1882,-0.3975 0.2823,-0.889 0.2823,-1.4712 z m 5.5139,-2.8783 v 5.3546 h 3.0206 c 0.2398,0 0.4249,0.0581 0.5534,0.1746 0.1301,0.1182 0.1933,0.2654 0.1933,0.4417 0,0.18 -0.0632,0.3271 -0.1899,0.4385 -0.1268,0.1114 -0.3136,0.1678 -0.5568,0.1678 h -3.5977 c -0.3234,0 -0.5564,-0.072 -0.6985,-0.2157 -0.1423,-0.144 -0.2143,-0.3767 -0.2143,-0.697 v -5.6645 c 0,-0.2999 0.0686,-0.5258 0.2039,-0.6766 0.1355,-0.1506 0.3135,-0.226 0.5343,-0.226 0.2225,0 0.4042,0.0737 0.5428,0.2225 0.1386,0.1492 0.2089,0.3768 0.2089,0.6801 z m 10.5897,5.7433 -0.3512,-0.923 h -2.9897 l -0.3509,0.9417 c -0.1372,0.3682 -0.2537,0.6165 -0.3513,0.7449 -0.0958,0.1284 -0.2551,0.1936 -0.4759,0.1936 -0.1868,0 -0.3529,-0.0686 -0.4966,-0.2055 -0.144,-0.1369 -0.2157,-0.2928 -0.2157,-0.4657 0,-0.1012 0.017,-0.2055 0.0496,-0.3118 0.0343,-0.1078 0.089,-0.2552 0.1661,-0.4468 l 1.8802,-4.7744 c 0.0547,-0.1369 0.1182,-0.3013 0.1933,-0.4929 0.0754,-0.1936 0.1559,-0.3529 0.2415,-0.4796 0.0856,-0.1267 0.197,-0.2294 0.3357,-0.3082 0.1389,-0.0788 0.3101,-0.1182 0.5139,-0.1182 0.2089,0 0.3818,0.0394 0.5204,0.1182 0.1386,0.0788 0.25,0.1798 0.3356,0.3031 0.0856,0.1233 0.1576,0.2568 0.2158,0.3991 0.0584,0.142 0.1335,0.3322 0.2228,0.5683 l 1.9213,4.7452 c 0.1505,0.3612 0.2259,0.6234 0.2259,0.7878 0,0.1695 -0.0703,0.3268 -0.2123,0.4691 -0.1423,0.142 -0.3152,0.2123 -0.5153,0.2123 -0.1166,0 -0.2177,-0.0207 -0.3017,-0.0635 -0.0822,-0.0411 -0.1522,-0.0975 -0.2106,-0.1695 -0.0564,-0.0717 -0.1162,-0.1831 -0.1814,-0.3305 -0.0669,-0.1488 -0.1216,-0.2806 -0.1695,-0.3937 z m -2.9489,-2.043 h 2.1972 l -1.1081,-3.0308 z m 8.9028,-0.267 h -0.5221 v 2.3596 c 0,0.3118 -0.0686,0.5394 -0.2056,0.6868 -0.1372,0.1471 -0.3169,0.2208 -0.536,0.2208 -0.2381,0 -0.4229,-0.0771 -0.553,-0.2313 -0.1304,-0.1539 -0.1953,-0.3784 -0.1953,-0.6763 v -5.6594 c 0,-0.3203 0.072,-0.5533 0.2157,-0.697 0.144,-0.1438 0.3767,-0.2158 0.697,-0.2158 h 2.4231 c 0.3339,0 0.6199,0.0136 0.8577,0.0428 0.2381,0.0292 0.4522,0.0856 0.6424,0.173 0.231,0.0975 0.4348,0.2364 0.6128,0.4161 0.1766,0.1814 0.3118,0.392 0.4025,0.6301 0.0924,0.2398 0.1387,0.4932 0.1387,0.762 0,0.5479 -0.154,0.9864 -0.4641,1.3152 -0.3098,0.3272 -0.7789,0.5599 -1.4074,0.6971 0.2636,0.1403 0.5171,0.3475 0.7586,0.6213 0.2395,0.2742 0.4555,0.567 0.6437,0.8751 0.1885,0.3101 0.3356,0.5873 0.4419,0.8374 0.1044,0.2483 0.1574,0.4195 0.1574,0.5139 0,0.0958 -0.0307,0.1916 -0.0924,0.2877 -0.0616,0.0958 -0.1455,0.1712 -0.2535,0.2259 -0.106,0.0547 -0.231,0.0822 -0.3716,0.0822 -0.1661,0 -0.3064,-0.0394 -0.4212,-0.1182 -0.1128,-0.0788 -0.2106,-0.178 -0.2928,-0.2979 -0.0822,-0.1199 -0.1934,-0.2979 -0.334,-0.5309 l -0.5975,-0.9933 c -0.214,-0.3628 -0.4059,-0.6403 -0.5737,-0.8303 -0.1695,-0.1919 -0.3408,-0.322 -0.5154,-0.3923 -0.1729,-0.07 -0.3923,-0.1043 -0.6559,-0.1043 z m 0.8529,-3.0926 h -1.375 v 2.0239 h 1.3339 c 0.3578,0 0.6591,-0.0309 0.904,-0.0924 0.2432,-0.0618 0.4297,-0.1678 0.5584,-0.3169 0.1284,-0.1488 0.1934,-0.3543 0.1934,-0.6145 0,-0.2055 -0.0514,-0.3855 -0.156,-0.5412 -0.1026,-0.1559 -0.2463,-0.2724 -0.4314,-0.3495 -0.1729,-0.0734 -0.5153,-0.1094 -1.0273,-0.1094 z"
     style="fill:#000000;fill-rule:evenodd"
     id="path66" />
  <g
     style="display:inline"
     transform="translate(-186.21726,-284.80287)"
     id="Layer1002">
    <path
       d="m 283.9425,330.7939 c 0.0929,-0.0859 0.1857,-0.1687 0.2851,-0.2489 2.5291,-2.0433 4.8974,-3.3261 8.0546,-4.1665 2.0748,-0.5526 3.6772,-0.6259 5.7954,-0.6259 h 0.006 c 3.311,0 6.9734,1.1444 9.8065,2.8387 1.8227,1.0903 3.232,2.2913 4.6989,3.8148 0.0576,0.0598 0.1048,0.1126 0.1583,0.1762 l 0.4647,0.5538 c 0.7964,0.9489 1.3715,1.8186 2.0059,2.8736 0.4861,0.8087 0.9108,1.7098 1.2617,2.5867 0.0997,0.2492 0.1834,0.5034 0.2819,0.752 0.2574,0.6497 0.4414,1.3341 0.6095,2.0115 0.3549,1.4288 0.5399,2.9023 0.5732,4.3733 7e-4,0.028 10e-4,0.0516 10e-4,0.0793 v 0.8303 c 0,0.028 -3e-4,0.0516 -10e-4,0.0796 -0.0342,1.4936 -0.2215,2.9898 -0.5629,4.4447 -0.6469,2.7572 -1.6685,5.438 -2.9759,7.9488 -0.0704,0.1356 -0.1437,0.2546 -0.2174,0.3874 -0.0233,0.0468 -0.0396,0.0783 -0.0648,0.1242 l -0.4915,0.8971 c -0.0135,0.0245 -0.0251,0.0453 -0.039,0.0695 -1.5034,2.6009 -3.1965,5.2612 -5.1041,7.583 -1.2114,1.4741 -2.3791,2.9403 -3.6782,4.3427 -0.5887,0.6352 -1.146,1.2903 -1.7602,1.9036 -0.47,0.4691 -0.9392,0.9392 -1.4086,1.409 -0.2278,0.2281 -0.4805,0.4316 -0.7029,0.6569 -1.0846,1.0978 -2.071,1.577 -3.6137,1.577 h -0.0746 c -1.7013,0 -2.9303,-1.1424 -4.0441,-2.2566 -0.6438,-0.6444 -1.3288,-1.2762 -1.9184,-1.9712 -0.0617,-0.0601 -0.1249,-0.119 -0.186,-0.18 -1.1846,-1.1837 -2.5004,-2.7047 -3.5413,-4.0215 -0.0903,-0.1139 -0.1888,-0.2237 -0.281,-0.337 -0.007,-0.009 -0.0138,-0.0166 -0.021,-0.0261 l -0.8965,-1.1204 c -0.8866,-1.0777 -1.7437,-2.3095 -2.541,-3.4599 -0.2089,-0.3014 -0.4062,-0.6094 -0.6095,-0.9143 -0.009,-0.0139 -0.017,-0.0258 -0.0261,-0.04 l -0.5453,-0.8432 c -0.0176,-0.0271 -0.0324,-0.0504 -0.0491,-0.0781 -2.0282,-3.3264 -3.8166,-6.6968 -4.8109,-10.4905 -0.6126,-2.3369 -0.8546,-4.0278 -0.8546,-6.4603 v -0.0271 c 0,-3.0385 0.8895,-6.3621 2.2897,-9.0523 0.0718,-0.1375 0.1485,-0.2658 0.1831,-0.3162 0.4874,-0.9411 1.089,-1.8215 1.7218,-2.6697 0.6673,-0.8946 1.9268,-2.2951 2.8226,-3.008 z m 13.4926,9.1089 c -3.283,0 -5.9424,2.6597 -5.9424,5.9427 0,3.283 2.6594,5.9424 5.9424,5.9424 3.283,0 5.9424,-2.6594 5.9424,-5.9424 0,-3.283 -2.6594,-5.9427 -5.9424,-5.9427 z"
       style="fill:#07485e;fill-rule:evenodd"
       id="path68" />
    <path
       d="m 280.4016,345.8672 c 0.001,2.362 0.191,3.4818 0.7408,5.5791 0.9114,3.4771 2.5855,6.5592 4.4165,9.5621 l 0.5451,0.8435 c 0.1986,0.2977 0.3669,0.563 0.5736,0.8613 0.5239,0.7559 1.7847,2.5221 2.3689,3.2319 l 0.9258,1.1571 c 0.1118,0.1368 0.2055,0.2405 0.3151,0.3792 0.611,0.7727 2.6026,3.0501 3.2712,3.7181 0.1181,0.118 0.2401,0.2237 0.3451,0.3493 0.4367,0.5224 1.251,1.2929 1.761,1.8031 0.2746,0.2747 1.2291,1.2382 1.5853,1.2382 h 0.0747 c 0.48,-5e-4 0.6206,-0.0172 1.1406,-0.5437 0.2474,-0.2506 0.4679,-0.422 0.7172,-0.6714 0.4817,-0.4821 0.9295,-0.9302 1.4118,-1.4117 0.5851,-0.5842 1.1248,-1.222 1.6657,-1.8058 1.3873,-1.4974 2.2601,-2.6267 3.5425,-4.1874 1.7214,-2.0951 3.4149,-4.7533 4.7803,-7.1155 l 0.4914,-0.8972 c 0.0912,-0.1844 0.1638,-0.2856 0.2477,-0.4467 1.1702,-2.248 2.0942,-4.6631 2.6748,-7.1379 0.2828,-1.205 0.4431,-2.4658 0.4721,-3.7299 v -0.8306 c -0.0282,-1.2287 -0.1826,-2.4496 -0.4717,-3.6143 -0.1239,-0.4989 -0.2804,-1.0966 -0.4676,-1.5691 -0.1042,-0.263 -0.1736,-0.4813 -0.2774,-0.7408 -0.275,-0.6869 -0.6489,-1.4801 -1.014,-2.0873 -0.591,-0.9832 -0.9168,-1.5111 -1.6894,-2.4302 l -0.4647,-0.5536 c -1.278,-1.3278 -2.3779,-2.2849 -3.9785,-3.2423 -2.2788,-1.3629 -5.343,-2.3459 -8.0223,-2.3459 h -0.006 c -1.9247,0 -3.0091,0.005 -4.9012,0.5087 -2.7301,0.7269 -4.6249,1.7833 -6.7644,3.5114 -0.1086,0.0878 -0.158,0.1518 -0.2709,0.2382 -0.5067,0.3881 -1.8484,1.8754 -2.2351,2.3936 -0.5095,0.6829 -1.0279,1.4302 -1.421,2.1894 -0.0646,0.125 -0.1213,0.198 -0.1863,0.3229 -1.1337,2.1777 -1.896,4.9702 -1.8971,7.4472 z m 17.0336,-9.4404 c 5.2017,0 9.4186,4.2168 9.4186,9.4186 0,5.2018 -4.2169,9.4186 -9.4186,9.4186 -5.2018,0 -9.4187,-4.2168 -9.4187,-9.4186 0,-5.2018 4.2169,-9.4186 9.4187,-9.4186 z"
       style="fill:#d36259;fill-rule:evenodd"
       id="path70" />
  </g>
</svg>
