<svg width="450" height="256" xmlns="http://www.w3.org/2000/svg" xmlns:xlink="http://www.w3.org/1999/xlink" overflow="hidden"><defs><clipPath id="clip0"><path d="M415 232 865 232 865 488 415 488Z" fill-rule="evenodd" clip-rule="evenodd"/></clipPath></defs><g clip-path="url(#clip0)" transform="translate(-415 -232)"><path d="M792.818 271.611 802.924 323.917 854.194 337.614C860.057 339.179 864 344.312 864 350.386L864 440.781C864 448.06 858.063 454 850.787 454L428.213 454C420.937 454 415 448.06 415 440.781L415 270.119C415 266.481 416.298 263.346 418.873 260.774L442.762 236.871C445.336 234.299 448.466 233 452.106 233L745.761 233C769.006 233 788.989 248.392 792.818 271.611Z" fill="#07485E" fill-rule="evenodd"/><path d="M452.86 246 659.727 246 702.638 246 746.117 246C763.568 246 777.51 257.406 780.118 273.77L791.814 334.533 851 350.401 851 441 811.551 441 659.727 441 429 441 429 399.258 429 350.401 429 269.954ZM764.843 320.639 741.684 306.997 735.29 269.954 746.117 269.954C751.762 269.954 755.866 272.969 756.571 277.632Z" fill="#FFFFFF" fill-rule="evenodd"/><path d="M660 270 660 333 767 333 756.466 277.717C755.763 273.031 751.674 270 746.052 270Z" fill="#B0D3F0" fill-rule="evenodd"/><path d="M803 441.002C803 421.667 787.329 406 767.998 406 748.671 406 733 421.667 733 441.002 733 460.333 748.671 476 767.998 476 787.329 476 803 460.333 803 441.002Z" fill="#A2ABB8" fill-rule="evenodd"/><path d="M767.998 487C742.635 487 722 466.141 722 440.502 722 414.859 742.635 394 767.998 394 793.365 394 814 414.859 814 440.502 814 466.141 793.365 487 767.998 487ZM767.998 416.534C754.927 416.534 744.292 427.285 744.292 440.502 744.292 453.715 754.927 464.466 767.998 464.466 781.073 464.466 791.708 453.715 791.708 440.502 791.708 427.285 781.073 416.534 767.998 416.534Z" fill="#04303E" fill-rule="evenodd"/><path d="M547 441.002C547 421.667 531.329 406 512.002 406 492.671 406 477 421.667 477 441.002 477 460.333 492.671 476 512.002 476 531.329 476 547 460.333 547 441.002Z" fill="#A2ABB8" fill-rule="evenodd"/><path d="M512.002 487C486.635 487 466 466.141 466 440.502 466 414.859 486.635 394 512.002 394 537.365 394 558 414.859 558 440.502 558 466.141 537.365 487 512.002 487ZM512.002 416.534C498.927 416.534 488.292 427.285 488.292 440.502 488.292 453.715 498.927 464.466 512.002 464.466 525.073 464.466 535.708 453.715 535.708 440.502 535.708 427.285 525.073 416.534 512.002 416.534Z" fill="#04303E" fill-rule="evenodd"/><path d="M660 250 682 250 682 352 660 352Z" fill="#E6E6E6" fill-rule="evenodd"/><path d="M577 270 665 270 665 333 577 333Z" fill="#B0D3F0" fill-rule="evenodd"/><path d="M429 344 727 344 727 386 429 386Z" fill="#E8A824" fill-rule="evenodd"/><path d="M683 344 826.724 344 851 350.501 851 386 683 386Z" fill="#E8A824" fill-rule="evenodd"/><path d="M821 353 851 353 851 377 821 377Z" fill="#FFFCE5" fill-rule="evenodd"/><path d="M692.833 292C693.56 292 694.284 291.721 694.834 291.171L706.169 279.835C707.277 278.727 707.277 276.939 706.169 275.831 705.062 274.723 703.27 274.723 702.162 275.831L690.831 287.163C689.723 288.271 689.723 290.063 690.831 291.171 691.385 291.721 692.109 292 692.833 292Z" fill="#FFFFFF" fill-rule="evenodd"/><path d="M692.749 307C693.455 307 694.158 306.705 694.692 306.118L700.194 300.119C701.269 298.946 701.269 297.053 700.194 295.88 699.119 294.707 697.38 294.707 696.305 295.88L690.806 301.879C689.731 303.052 689.731 304.949 690.806 306.118 691.344 306.705 692.046 307 692.749 307Z" fill="#FFFFFF" fill-rule="evenodd"/><path d="M701.87 290.696C701.326 291.172 701 291.831 701 292.484 701 293.136 701.326 293.792 701.87 294.245 702.438 294.721 703.185 295 703.998 295 704.78 295 705.559 294.721 706.13 294.271 706.67 293.792 707 293.136 707 292.484 707 291.831 706.67 291.172 706.13 290.696 705.022 289.768 702.979 289.768 701.87 290.696Z" fill="#FFFFFF" fill-rule="evenodd"/><path d="M707.88 289.123C708.467 289.709 709.233 290 709.999 290 710.77 290 711.537 289.709 712.123 289.123L721.12 280.12C722.293 278.947 722.293 277.053 721.12 275.88 719.947 274.707 718.054 274.707 716.881 275.88L707.88 284.882C706.707 286.055 706.707 287.949 707.88 289.123Z" fill="#FFFFFF" fill-rule="evenodd"/><path d="M717.036 290.826 690.853 316.189C689.716 317.291 689.716 319.07 690.853 320.172 691.422 320.723 692.165 321 692.909 321 693.656 321 694.399 320.723 694.964 320.172L721.147 294.81C722.284 293.707 722.284 291.929 721.147 290.826 720.01 289.725 718.173 289.725 717.036 290.826Z" fill="#FFFFFF" fill-rule="evenodd"/><path d="M726.275 284.836C725.349 283.721 723.649 283.721 722.725 284.836 722.271 285.408 722 286.195 722 286.982 722 287.765 722.271 288.553 722.725 289.128 723.198 289.668 723.85 290 724.498 290 725.15 290 725.799 289.668 726.275 289.128 726.725 288.553 727 287.765 727 286.982 727 286.195 726.725 285.408 726.275 284.836Z" fill="#FFFFFF" fill-rule="evenodd"/><path d="M456.971 270 559 270 559 333 442 333 442 285.079C442 276.785 448.734 270 456.971 270Z" fill="#B0D3F0" fill-rule="evenodd"/><path d="M450.833 292C451.56 292 452.284 291.721 452.838 291.171L464.169 279.835C465.277 278.727 465.277 276.939 464.169 275.831 463.062 274.723 461.27 274.723 460.162 275.831L448.831 287.163C447.723 288.271 447.723 290.063 448.831 291.171 449.385 291.721 450.109 292 450.833 292Z" fill="#FFFFFF" fill-rule="evenodd"/><path d="M450.749 307C451.455 307 452.158 306.705 452.696 306.118L458.194 300.119C459.269 298.946 459.269 297.053 458.194 295.88 457.119 294.707 455.38 294.707 454.305 295.88L448.806 301.879C447.731 303.052 447.731 304.949 448.806 306.118 449.344 306.705 450.046 307 450.749 307Z" fill="#FFFFFF" fill-rule="evenodd"/><path d="M459.87 290.696C459.326 291.172 459 291.831 459 292.484 459 293.136 459.326 293.792 459.87 294.245 460.438 294.721 461.189 295 462.002 295 462.78 295 463.562 294.721 464.13 294.271 464.67 293.792 465 293.136 465 292.484 465 291.831 464.67 291.172 464.13 290.696 463.022 289.768 460.982 289.768 459.87 290.696Z" fill="#FFFFFF" fill-rule="evenodd"/><path d="M465.88 289.123C466.463 289.709 467.229 290 468 290 468.767 290 469.533 289.709 470.12 289.123L479.121 280.12C480.294 278.947 480.294 277.053 479.121 275.88 477.948 274.707 476.05 274.707 474.877 275.88L465.876 284.882C464.707 286.055 464.707 287.949 465.88 289.123Z" fill="#FFFFFF" fill-rule="evenodd"/><path d="M475.032 290.826 448.853 316.189C447.716 317.291 447.716 319.07 448.853 320.172 449.422 320.723 450.165 321 450.908 321 451.655 321 452.399 320.723 452.968 320.172L479.147 294.81C480.284 293.707 480.284 291.929 479.147 290.826 478.01 289.725 476.17 289.725 475.032 290.826Z" fill="#FFFFFF" fill-rule="evenodd"/><path d="M484.275 284.836C483.349 283.721 481.649 283.721 480.725 284.836 480.271 285.408 480 286.195 480 286.982 480 287.765 480.271 288.553 480.725 289.128 481.198 289.668 481.85 290 482.502 290 483.15 290 483.799 289.668 484.275 289.128 484.725 288.553 485 287.765 485 286.982 485 286.195 484.725 285.408 484.275 284.836Z" fill="#FFFFFF" fill-rule="evenodd"/><path d="M508.967 356.856 496.524 356.856 496.524 363.756 507.984 363.756C508.826 363.756 509.456 363.95 509.868 364.336 510.287 364.721 510.491 365.24 510.491 365.873 510.491 366.506 510.287 367.028 509.883 367.425 509.468 367.826 508.841 368.028 507.984 368.028L496.524 368.028 496.524 376.023 509.393 376.023C510.265 376.023 510.917 376.232 511.354 376.644 511.8 377.053 512.022 377.609 512.022 378.296 512.022 378.956 511.8 379.498 511.354 379.909 510.917 380.321 510.265 380.527 509.393 380.527L494.385 380.527C493.184 380.527 492.32 380.253 491.793 379.707 491.267 379.158 491 378.269 491 377.049L491 355.952C491 355.135 491.122 354.468 491.356 353.953 491.589 353.434 491.956 353.057 492.461 352.82 492.961 352.587 493.603 352.469 494.385 352.469L508.967 352.469C509.849 352.469 510.502 352.672 510.928 353.072 511.354 353.476 511.57 354.002 511.57 354.651 511.57 355.318 511.354 355.852 510.928 356.257 510.502 356.657 509.849 356.856 508.967 356.856ZM541.842 372.117C541.842 373.806 541.415 375.328 540.566 376.683 539.721 378.033 538.475 379.093 536.84 379.856 535.201 380.619 533.259 381 531.016 381 528.324 381 526.103 380.478 524.357 379.436 523.119 378.685 522.114 377.682 521.343 376.427 520.568 375.172 520.178 373.951 520.178 372.762 520.178 372.079 520.416 371.487 520.879 370.991 521.343 370.503 521.932 370.263 522.648 370.263 523.234 370.263 523.723 370.45 524.123 370.835 524.527 371.217 524.869 371.785 525.154 372.54 525.499 373.429 525.881 374.18 526.281 374.775 526.686 375.374 527.253 375.874 527.983 376.263 528.717 376.648 529.678 376.847 530.871 376.847 532.503 376.847 533.834 376.454 534.857 375.668 535.88 374.886 536.395 373.906 536.395 372.731 536.395 371.796 536.121 371.037 535.569 370.465 535.016 369.881 534.297 369.439 533.422 369.13 532.551 368.825 531.379 368.497 529.918 368.15 527.961 367.681 526.318 367.128 525.002 366.498 523.682 365.865 522.637 365.003 521.862 363.912 521.087 362.821 520.698 361.471 520.698 359.842 520.698 358.301 521.105 356.928 521.925 355.727 522.744 354.533 523.931 353.613 525.48 352.965 527.03 352.32 528.85 352 530.945 352 532.614 352 534.063 352.214 535.291 352.637 536.511 353.072 537.523 353.636 538.331 354.342 539.132 355.048 539.721 355.795 540.096 356.57 540.463 357.348 540.652 358.11 540.652 358.85 540.652 359.522 540.418 360.136 539.955 360.678 539.491 361.223 538.909 361.49 538.216 361.49 537.582 361.49 537.104 361.326 536.774 361.006 536.444 360.678 536.088 360.143 535.709 359.404 535.206 358.347 534.616 357.519 533.919 356.924 533.225 356.329 532.109 356.035 530.567 356.035 529.144 356.035 527.987 356.356 527.119 357.001 526.24 357.649 525.803 358.42 525.803 359.328 525.803 359.888 525.948 360.372 526.248 360.785 526.544 361.189 526.96 361.544 527.479 361.837 528.002 362.131 528.528 362.36 529.062 362.528 529.596 362.691 530.478 362.932 531.702 363.253 533.237 363.626 534.634 364.03 535.88 364.48 537.126 364.923 538.183 365.469 539.061 366.105 539.936 366.739 540.615 367.551 541.104 368.524 541.593 369.504 541.842 370.698 541.842 372.117ZM574.479 371.667C574.479 372.559 574.272 373.528 573.838 374.565 573.412 375.603 572.741 376.621 571.821 377.621 570.906 378.628 569.73 379.436 568.31 380.066 566.879 380.684 565.218 381 563.32 381 561.885 381 560.576 380.863 559.397 380.581 558.222 380.302 557.147 379.864 556.19 379.269 555.23 378.681 554.34 377.896 553.536 376.93 552.816 376.049 552.201 375.069 551.693 373.978 551.185 372.887 550.803 371.72 550.551 370.484 550.299 369.241 550.169 367.929 550.169 366.536 550.169 364.286 550.488 362.261 551.129 360.475 551.763 358.686 552.687 357.157 553.873 355.891 555.067 354.624 556.457 353.655 558.055 352.992 559.657 352.332 561.362 352 563.172 352 565.381 352 567.343 352.45 569.07 353.358 570.79 354.258 572.111 355.384 573.034 356.714 573.946 358.046 574.409 359.3 574.409 360.491 574.409 361.143 574.183 361.711 573.738 362.215 573.293 362.711 572.752 362.958 572.118 362.958 571.414 362.958 570.88 362.783 570.531 362.444 570.175 362.097 569.782 361.501 569.352 360.659 568.625 359.27 567.784 358.229 566.812 357.539 565.833 356.852 564.64 356.505 563.212 356.505 560.939 356.505 559.134 357.393 557.788 359.163 556.443 360.941 555.767 363.462 555.767 366.727 555.767 368.909 556.068 370.724 556.665 372.174 557.254 373.627 558.099 374.703 559.193 375.42 560.283 376.133 561.559 376.492 563.027 376.492 564.614 376.492 565.952 376.087 567.05 375.279 568.151 374.467 568.977 373.28 569.534 371.705 569.771 370.965 570.06 370.366 570.409 369.893 570.754 369.431 571.313 369.195 572.081 369.195 572.741 369.195 573.305 369.431 573.775 369.908 574.246 370.377 574.479 370.965 574.479 371.667ZM596.143 352C598.976 352 601.401 352.587 603.425 353.77 605.449 354.945 606.988 356.623 608.026 358.797 609.068 360.971 609.59 363.527 609.59 366.46 609.59 368.627 609.305 370.603 608.73 372.372 608.159 374.146 607.31 375.683 606.168 376.984 605.023 378.281 603.628 379.276 601.964 379.966 600.303 380.653 598.401 381 596.254 381 594.122 381 592.213 380.645 590.53 379.936 588.843 379.23 587.438 378.231 586.307 376.942 585.176 375.657 584.327 374.108 583.749 372.292 583.17 370.484 582.885 368.524 582.885 366.422 582.885 364.267 583.185 362.295 583.786 360.491 584.39 358.694 585.261 357.165 586.403 355.898 587.538 354.636 588.928 353.671 590.567 353.003 592.198 352.332 594.059 352 596.143 352ZM603.988 366.422C603.988 364.37 603.666 362.585 603.024 361.078 602.376 359.575 601.456 358.439 600.262 357.66 599.068 356.89 597.693 356.505 596.143 356.505 595.045 356.505 594.022 356.722 593.088 357.145 592.15 357.577 591.341 358.198 590.67 359.015 589.996 359.831 589.462 360.876 589.069 362.142 588.683 363.416 588.483 364.839 588.483 366.422 588.483 368.02 588.683 369.458 589.069 370.751 589.462 372.037 590.014 373.109 590.726 373.959 591.438 374.806 592.257 375.439 593.177 375.858 594.104 376.282 595.112 376.492 596.217 376.492 597.633 376.492 598.931 376.126 600.117 375.401 601.296 374.676 602.238 373.555 602.943 372.033 603.64 370.515 603.988 368.642 603.988 366.422ZM624.431 355.441 624.431 375.866 635.632 375.866C636.518 375.866 637.208 376.087 637.682 376.53 638.164 376.984 638.398 377.545 638.398 378.216 638.398 378.902 638.164 379.463 637.697 379.891 637.227 380.314 636.533 380.527 635.632 380.527L622.292 380.527C621.095 380.527 620.231 380.253 619.705 379.707 619.174 379.158 618.908 378.269 618.908 377.049L618.908 355.441C618.908 354.296 619.163 353.434 619.664 352.862 620.168 352.286 620.828 352 621.644 352 622.47 352 623.145 352.279 623.657 352.847 624.172 353.415 624.431 354.285 624.431 355.441ZM663.695 377.346 662.393 373.826 651.308 373.826 650.006 377.419C649.498 378.822 649.065 379.772 648.705 380.26 648.349 380.749 647.76 381 646.94 381 646.247 381 645.632 380.737 645.098 380.215 644.564 379.692 644.301 379.097 644.301 378.441 644.301 378.052 644.363 377.655 644.482 377.251 644.608 376.839 644.812 376.274 645.098 375.546L652.068 357.333C652.272 356.814 652.509 356.184 652.787 355.456 653.065 354.716 653.365 354.109 653.681 353.625 654 353.14 654.411 352.752 654.926 352.45 655.442 352.149 656.076 352 656.832 352 657.607 352 658.248 352.149 658.76 352.45 659.275 352.752 659.687 353.137 660.006 353.606 660.321 354.075 660.588 354.586 660.807 355.128 661.022 355.669 661.3 356.394 661.63 357.294L668.756 375.397C669.312 376.774 669.593 377.773 669.593 378.399 669.593 379.047 669.33 379.646 668.804 380.188 668.277 380.729 667.636 381 666.894 381 666.461 381 666.086 380.92 665.775 380.756 665.471 380.6 665.211 380.386 664.996 380.112 664.785 379.837 664.566 379.413 664.321 378.849 664.073 378.281 663.873 377.781 663.695 377.346ZM652.761 369.554 660.907 369.554 656.799 357.996ZM685.77 368.535 683.834 368.535 683.834 377.537C683.834 378.727 683.578 379.593 683.07 380.158 682.563 380.718 681.895 381 681.083 381 680.201 381 679.515 380.706 679.033 380.115 678.551 379.528 678.31 378.673 678.31 377.537L678.31 355.952C678.31 354.727 678.577 353.839 679.107 353.293 679.641 352.744 680.505 352.469 681.691 352.469L690.678 352.469C691.913 352.469 692.973 352.519 693.856 352.633 694.738 352.744 695.532 352.957 696.24 353.293 697.096 353.663 697.849 354.193 698.509 354.88 699.165 355.57 699.666 356.375 700.003 357.283 700.344 358.198 700.518 359.163 700.518 360.189 700.518 362.28 699.948 363.95 698.798 365.205 697.649 366.452 695.91 367.341 693.578 367.864 694.557 368.398 695.495 369.191 696.392 370.236 697.278 371.282 698.079 372.395 698.776 373.574 699.476 374.756 700.021 375.813 700.415 376.766 700.804 377.712 701 378.365 701 378.727 701 379.093 700.885 379.459 700.655 379.825 700.43 380.188 700.118 380.478 699.718 380.684 699.324 380.894 698.861 381 698.338 381 697.723 381 697.204 380.848 696.778 380.546 696.359 380.249 695.995 379.871 695.691 379.413 695.387 378.956 694.975 378.277 694.453 377.388L692.239 373.597C691.446 372.216 690.734 371.156 690.111 370.431 689.481 369.698 688.847 369.203 688.202 368.935 687.561 368.668 686.745 368.535 685.77 368.535ZM688.932 356.741 683.834 356.741 683.834 364.461 688.776 364.461C690.104 364.461 691.224 364.343 692.132 364.107 693.033 363.874 693.723 363.47 694.201 362.901 694.675 362.333 694.916 361.547 694.916 360.556 694.916 359.77 694.727 359.087 694.338 358.492 693.96 357.897 693.426 357.451 692.74 357.157 692.099 356.878 690.83 356.741 688.932 356.741Z" fill-rule="evenodd"/></g></svg>